<mxfile host="Electron" modified="2024-05-08T16:00:04.493Z" agent="Mozilla/5.0 (Macintosh; Intel Mac OS X 10_15_7) AppleWebKit/537.36 (KHTML, like Gecko) draw.io/24.1.0 Chrome/120.0.6099.109 Electron/28.1.0 Safari/537.36" etag="2f03eMRR_6FRoyQp1xhB" version="24.1.0" type="device" pages="2">
  <diagram name="Page-1" id="n3R20GNyrVbugMKYGs2T">
    <mxGraphModel dx="1420" dy="910" grid="1" gridSize="10" guides="1" tooltips="1" connect="1" arrows="1" fold="1" page="1" pageScale="1" pageWidth="1169" pageHeight="827" math="0" shadow="0">
      <root>
        <mxCell id="0" />
        <mxCell id="1" parent="0" />
        <mxCell id="SHKqWwhrug4iHhSsZHbl-112" value="" style="shape=table;html=1;whiteSpace=wrap;startSize=0;container=1;collapsible=0;childLayout=tableLayout;columnLines=0;rowLines=0;fontSize=16;strokeColor=default;" parent="1" vertex="1">
          <mxGeometry x="559.84" y="120" width="540.16" height="30.08" as="geometry" />
        </mxCell>
        <mxCell id="SHKqWwhrug4iHhSsZHbl-113" value="" style="shape=tableRow;horizontal=0;startSize=0;swimlaneHead=0;swimlaneBody=0;top=0;left=0;bottom=0;right=0;collapsible=0;dropTarget=0;fillColor=none;points=[[0,0.5],[1,0.5]];portConstraint=eastwest;fontSize=16;strokeColor=inherit;" parent="SHKqWwhrug4iHhSsZHbl-112" vertex="1">
          <mxGeometry width="540.16" height="30" as="geometry" />
        </mxCell>
        <mxCell id="SHKqWwhrug4iHhSsZHbl-114" value="dc=bb-psp,dc=xa" style="shape=partialRectangle;html=1;whiteSpace=wrap;connectable=0;fillColor=none;top=0;left=0;bottom=0;right=0;overflow=hidden;fontSize=12;strokeColor=inherit;align=left;spacingLeft=5;" parent="SHKqWwhrug4iHhSsZHbl-113" vertex="1">
          <mxGeometry width="398" height="30" as="geometry">
            <mxRectangle width="398" height="30" as="alternateBounds" />
          </mxGeometry>
        </mxCell>
        <mxCell id="SHKqWwhrug4iHhSsZHbl-115" value="&lt;span style=&quot;font-family: Arial, sans-serif; font-size: 14.6667px;&quot;&gt;domain&lt;/span&gt;" style="shape=partialRectangle;html=1;whiteSpace=wrap;connectable=0;fillColor=#d80073;top=0;left=0;bottom=0;right=0;overflow=hidden;fontSize=12;strokeColor=#A50040;align=left;spacingLeft=5;fontColor=#FFFFFF;" parent="SHKqWwhrug4iHhSsZHbl-113" vertex="1">
          <mxGeometry x="398" width="142" height="30" as="geometry">
            <mxRectangle width="142" height="30" as="alternateBounds" />
          </mxGeometry>
        </mxCell>
        <mxCell id="SHKqWwhrug4iHhSsZHbl-108" value="" style="shape=table;html=1;whiteSpace=wrap;startSize=0;container=1;collapsible=0;childLayout=tableLayout;columnLines=0;rowLines=0;fontSize=16;strokeColor=default;" parent="1" vertex="1">
          <mxGeometry x="589" y="160" width="511" height="30.08" as="geometry" />
        </mxCell>
        <mxCell id="SHKqWwhrug4iHhSsZHbl-109" value="" style="shape=tableRow;horizontal=0;startSize=0;swimlaneHead=0;swimlaneBody=0;top=0;left=0;bottom=0;right=0;collapsible=0;dropTarget=0;fillColor=none;points=[[0,0.5],[1,0.5]];portConstraint=eastwest;fontSize=16;strokeColor=inherit;" parent="SHKqWwhrug4iHhSsZHbl-108" vertex="1">
          <mxGeometry width="511" height="30" as="geometry" />
        </mxCell>
        <mxCell id="SHKqWwhrug4iHhSsZHbl-110" value="ou=PLXADS" style="shape=partialRectangle;html=1;whiteSpace=wrap;connectable=0;fillColor=none;top=0;left=0;bottom=0;right=0;overflow=hidden;fontSize=12;strokeColor=inherit;align=left;spacingLeft=5;" parent="SHKqWwhrug4iHhSsZHbl-109" vertex="1">
          <mxGeometry width="371" height="30" as="geometry">
            <mxRectangle width="371" height="30" as="alternateBounds" />
          </mxGeometry>
        </mxCell>
        <mxCell id="SHKqWwhrug4iHhSsZHbl-111" value="&lt;span style=&quot;font-family: Arial, sans-serif; font-size: 14.6667px;&quot;&gt;organizationalUnit&lt;/span&gt;" style="shape=partialRectangle;html=1;whiteSpace=wrap;connectable=0;fillColor=#d80073;top=0;left=0;bottom=0;right=0;overflow=hidden;fontSize=12;strokeColor=#A50040;align=left;spacingLeft=5;fontColor=#FFFFFF;" parent="SHKqWwhrug4iHhSsZHbl-109" vertex="1">
          <mxGeometry x="371" width="140" height="30" as="geometry">
            <mxRectangle width="140" height="30" as="alternateBounds" />
          </mxGeometry>
        </mxCell>
        <mxCell id="SHKqWwhrug4iHhSsZHbl-104" value="" style="shape=table;html=1;whiteSpace=wrap;startSize=0;container=1;collapsible=0;childLayout=tableLayout;columnLines=0;rowLines=0;fontSize=16;strokeColor=default;" parent="1" vertex="1">
          <mxGeometry x="618.11" y="200" width="481.89" height="30" as="geometry" />
        </mxCell>
        <mxCell id="SHKqWwhrug4iHhSsZHbl-105" value="" style="shape=tableRow;horizontal=0;startSize=0;swimlaneHead=0;swimlaneBody=0;top=0;left=0;bottom=0;right=0;collapsible=0;dropTarget=0;fillColor=none;points=[[0,0.5],[1,0.5]];portConstraint=eastwest;fontSize=16;strokeColor=inherit;" parent="SHKqWwhrug4iHhSsZHbl-104" vertex="1">
          <mxGeometry width="481.89" height="30" as="geometry" />
        </mxCell>
        <mxCell id="SHKqWwhrug4iHhSsZHbl-106" value="ou=Polizei" style="shape=partialRectangle;html=1;whiteSpace=wrap;connectable=0;fillColor=none;top=0;left=0;bottom=0;right=0;overflow=hidden;fontSize=12;strokeColor=inherit;align=left;spacingLeft=5;" parent="SHKqWwhrug4iHhSsZHbl-105" vertex="1">
          <mxGeometry width="340" height="30" as="geometry">
            <mxRectangle width="340" height="30" as="alternateBounds" />
          </mxGeometry>
        </mxCell>
        <mxCell id="SHKqWwhrug4iHhSsZHbl-107" value="&lt;span style=&quot;font-family: Arial, sans-serif; font-size: 14.6667px;&quot;&gt;organizationalUnit&lt;/span&gt;" style="shape=partialRectangle;html=1;whiteSpace=wrap;connectable=0;fillColor=#d80073;top=0;left=0;bottom=0;right=0;overflow=hidden;fontSize=12;strokeColor=#A50040;align=left;spacingLeft=5;fontColor=#FFFFFF;" parent="SHKqWwhrug4iHhSsZHbl-105" vertex="1">
          <mxGeometry x="340" width="142" height="30" as="geometry">
            <mxRectangle width="142" height="30" as="alternateBounds" />
          </mxGeometry>
        </mxCell>
        <mxCell id="SHKqWwhrug4iHhSsZHbl-100" value="" style="shape=table;html=1;whiteSpace=wrap;startSize=0;container=1;collapsible=0;childLayout=tableLayout;columnLines=0;rowLines=0;fontSize=16;strokeColor=default;" parent="1" vertex="1">
          <mxGeometry x="647.24" y="240" width="452.76" height="30" as="geometry" />
        </mxCell>
        <mxCell id="SHKqWwhrug4iHhSsZHbl-101" value="" style="shape=tableRow;horizontal=0;startSize=0;swimlaneHead=0;swimlaneBody=0;top=0;left=0;bottom=0;right=0;collapsible=0;dropTarget=0;fillColor=none;points=[[0,0.5],[1,0.5]];portConstraint=eastwest;fontSize=16;strokeColor=inherit;" parent="SHKqWwhrug4iHhSsZHbl-100" vertex="1">
          <mxGeometry width="452.76" height="30" as="geometry" />
        </mxCell>
        <mxCell id="SHKqWwhrug4iHhSsZHbl-102" value="ou=Applikationen" style="shape=partialRectangle;html=1;whiteSpace=wrap;connectable=0;fillColor=none;top=0;left=0;bottom=0;right=0;overflow=hidden;fontSize=12;strokeColor=inherit;align=left;spacingLeft=5;" parent="SHKqWwhrug4iHhSsZHbl-101" vertex="1">
          <mxGeometry width="311" height="30" as="geometry">
            <mxRectangle width="311" height="30" as="alternateBounds" />
          </mxGeometry>
        </mxCell>
        <mxCell id="SHKqWwhrug4iHhSsZHbl-103" value="&lt;span style=&quot;font-family: Arial, sans-serif; font-size: 14.6667px;&quot;&gt;organizationalUnit&lt;/span&gt;" style="shape=partialRectangle;html=1;whiteSpace=wrap;connectable=0;fillColor=#d80073;top=0;left=0;bottom=0;right=0;overflow=hidden;fontSize=12;strokeColor=#A50040;align=left;spacingLeft=5;fontColor=#FFFFFF;" parent="SHKqWwhrug4iHhSsZHbl-101" vertex="1">
          <mxGeometry x="311" width="142" height="30" as="geometry">
            <mxRectangle width="142" height="30" as="alternateBounds" />
          </mxGeometry>
        </mxCell>
        <mxCell id="SHKqWwhrug4iHhSsZHbl-75" value="" style="shape=table;html=1;whiteSpace=wrap;startSize=0;container=1;collapsible=0;childLayout=tableLayout;columnLines=0;rowLines=0;fontSize=16;strokeColor=default;" parent="1" vertex="1">
          <mxGeometry x="705.51" y="519.92" width="394.49" height="30" as="geometry" />
        </mxCell>
        <mxCell id="SHKqWwhrug4iHhSsZHbl-76" value="" style="shape=tableRow;horizontal=0;startSize=0;swimlaneHead=0;swimlaneBody=0;top=0;left=0;bottom=0;right=0;collapsible=0;dropTarget=0;fillColor=none;points=[[0,0.5],[1,0.5]];portConstraint=eastwest;fontSize=16;strokeColor=inherit;" parent="SHKqWwhrug4iHhSsZHbl-75" vertex="1">
          <mxGeometry width="394.49" height="30" as="geometry" />
        </mxCell>
        <mxCell id="SHKqWwhrug4iHhSsZHbl-77" value="ou=Aufgabenbereiche" style="shape=partialRectangle;html=1;whiteSpace=wrap;connectable=0;fillColor=none;top=0;left=0;bottom=0;right=0;overflow=hidden;fontSize=12;strokeColor=inherit;align=left;spacingLeft=5;" parent="SHKqWwhrug4iHhSsZHbl-76" vertex="1">
          <mxGeometry width="254" height="30" as="geometry">
            <mxRectangle width="254" height="30" as="alternateBounds" />
          </mxGeometry>
        </mxCell>
        <mxCell id="SHKqWwhrug4iHhSsZHbl-78" value="&lt;span style=&quot;font-family: Arial, sans-serif; font-size: 14.6667px;&quot;&gt;organizationalUnit&lt;/span&gt;" style="shape=partialRectangle;html=1;whiteSpace=wrap;connectable=0;fillColor=#d80073;top=0;left=0;bottom=0;right=0;overflow=hidden;fontSize=12;strokeColor=#A50040;align=left;spacingLeft=5;fontColor=#FFFFFF;" parent="SHKqWwhrug4iHhSsZHbl-76" vertex="1">
          <mxGeometry x="254" width="140" height="30" as="geometry">
            <mxRectangle width="140" height="30" as="alternateBounds" />
          </mxGeometry>
        </mxCell>
        <mxCell id="SHKqWwhrug4iHhSsZHbl-96" value="" style="shape=table;html=1;whiteSpace=wrap;startSize=0;container=1;collapsible=0;childLayout=tableLayout;columnLines=0;rowLines=0;fontSize=16;strokeColor=default;" parent="1" vertex="1">
          <mxGeometry x="676.38" y="279.92" width="423.62" height="30" as="geometry" />
        </mxCell>
        <mxCell id="SHKqWwhrug4iHhSsZHbl-97" value="" style="shape=tableRow;horizontal=0;startSize=0;swimlaneHead=0;swimlaneBody=0;top=0;left=0;bottom=0;right=0;collapsible=0;dropTarget=0;fillColor=none;points=[[0,0.5],[1,0.5]];portConstraint=eastwest;fontSize=16;strokeColor=inherit;" parent="SHKqWwhrug4iHhSsZHbl-96" vertex="1">
          <mxGeometry width="423.62" height="30" as="geometry" />
        </mxCell>
        <mxCell id="SHKqWwhrug4iHhSsZHbl-98" value="ou=PLX" style="shape=partialRectangle;html=1;whiteSpace=wrap;connectable=0;fillColor=none;top=0;left=0;bottom=0;right=0;overflow=hidden;fontSize=12;strokeColor=inherit;align=left;spacingLeft=5;" parent="SHKqWwhrug4iHhSsZHbl-97" vertex="1">
          <mxGeometry width="283" height="30" as="geometry">
            <mxRectangle width="283" height="30" as="alternateBounds" />
          </mxGeometry>
        </mxCell>
        <mxCell id="SHKqWwhrug4iHhSsZHbl-99" value="&lt;span style=&quot;font-family: Arial, sans-serif; font-size: 14.6667px;&quot;&gt;organizationalUnit&lt;/span&gt;" style="shape=partialRectangle;html=1;whiteSpace=wrap;connectable=0;fillColor=#d80073;top=0;left=0;bottom=0;right=0;overflow=hidden;fontSize=12;strokeColor=#A50040;align=left;spacingLeft=5;fontColor=#FFFFFF;" parent="SHKqWwhrug4iHhSsZHbl-97" vertex="1">
          <mxGeometry x="283" width="141" height="30" as="geometry">
            <mxRectangle width="141" height="30" as="alternateBounds" />
          </mxGeometry>
        </mxCell>
        <mxCell id="SHKqWwhrug4iHhSsZHbl-79" value="" style="shape=table;html=1;whiteSpace=wrap;startSize=0;container=1;collapsible=0;childLayout=tableLayout;columnLines=0;rowLines=1;fontSize=16;strokeColor=default;" parent="1" vertex="1">
          <mxGeometry x="732.28" y="549.92" width="367.72" height="120" as="geometry" />
        </mxCell>
        <mxCell id="SHKqWwhrug4iHhSsZHbl-80" value="" style="shape=tableRow;horizontal=0;startSize=0;swimlaneHead=0;swimlaneBody=0;top=0;left=0;bottom=0;right=0;collapsible=0;dropTarget=0;fillColor=none;points=[[0,0.5],[1,0.5]];portConstraint=eastwest;fontSize=16;strokeColor=inherit;" parent="SHKqWwhrug4iHhSsZHbl-79" vertex="1">
          <mxGeometry width="367.72" height="30" as="geometry" />
        </mxCell>
        <mxCell id="SHKqWwhrug4iHhSsZHbl-81" value="cn=Ordnungswidrigkeit" style="shape=partialRectangle;html=1;whiteSpace=wrap;connectable=0;fillColor=none;top=0;left=0;bottom=0;right=0;overflow=hidden;fontSize=12;strokeColor=inherit;align=left;spacingLeft=5;" parent="SHKqWwhrug4iHhSsZHbl-80" vertex="1">
          <mxGeometry width="227" height="30" as="geometry">
            <mxRectangle width="227" height="30" as="alternateBounds" />
          </mxGeometry>
        </mxCell>
        <mxCell id="SHKqWwhrug4iHhSsZHbl-82" value="&lt;span style=&quot;font-family: Arial, sans-serif; font-size: 14.6667px;&quot;&gt;group&lt;/span&gt;" style="shape=partialRectangle;html=1;whiteSpace=wrap;connectable=0;fillColor=#d80073;top=0;left=0;bottom=0;right=0;overflow=hidden;fontSize=12;strokeColor=#A50040;align=left;spacingLeft=5;fontColor=#ffffff;" parent="SHKqWwhrug4iHhSsZHbl-80" vertex="1">
          <mxGeometry x="227" width="141" height="30" as="geometry">
            <mxRectangle width="141" height="30" as="alternateBounds" />
          </mxGeometry>
        </mxCell>
        <mxCell id="ATNh2JxTAhS5jjdbq0t9-60" style="shape=tableRow;horizontal=0;startSize=0;swimlaneHead=0;swimlaneBody=0;top=0;left=0;bottom=0;right=0;collapsible=0;dropTarget=0;fillColor=none;points=[[0,0.5],[1,0.5]];portConstraint=eastwest;fontSize=16;strokeColor=inherit;" vertex="1" parent="SHKqWwhrug4iHhSsZHbl-79">
          <mxGeometry y="30" width="367.72" height="30" as="geometry" />
        </mxCell>
        <mxCell id="ATNh2JxTAhS5jjdbq0t9-61" value="cn=&amp;nbsp;Straftat" style="shape=partialRectangle;html=1;whiteSpace=wrap;connectable=0;fillColor=none;top=0;left=0;bottom=0;right=0;overflow=hidden;fontSize=12;strokeColor=inherit;align=left;spacingLeft=5;" vertex="1" parent="ATNh2JxTAhS5jjdbq0t9-60">
          <mxGeometry width="227" height="30" as="geometry">
            <mxRectangle width="227" height="30" as="alternateBounds" />
          </mxGeometry>
        </mxCell>
        <mxCell id="ATNh2JxTAhS5jjdbq0t9-62" value="&lt;span style=&quot;font-family: Arial, sans-serif; font-size: 14.6667px;&quot;&gt;group&lt;/span&gt;" style="shape=partialRectangle;html=1;whiteSpace=wrap;connectable=0;fillColor=#d80073;top=0;left=0;bottom=0;right=0;overflow=hidden;fontSize=12;strokeColor=#A50040;align=left;spacingLeft=5;fontColor=#ffffff;" vertex="1" parent="ATNh2JxTAhS5jjdbq0t9-60">
          <mxGeometry x="227" width="141" height="30" as="geometry">
            <mxRectangle width="141" height="30" as="alternateBounds" />
          </mxGeometry>
        </mxCell>
        <mxCell id="ATNh2JxTAhS5jjdbq0t9-63" style="shape=tableRow;horizontal=0;startSize=0;swimlaneHead=0;swimlaneBody=0;top=0;left=0;bottom=0;right=0;collapsible=0;dropTarget=0;fillColor=none;points=[[0,0.5],[1,0.5]];portConstraint=eastwest;fontSize=16;strokeColor=inherit;" vertex="1" parent="SHKqWwhrug4iHhSsZHbl-79">
          <mxGeometry y="60" width="367.72" height="30" as="geometry" />
        </mxCell>
        <mxCell id="ATNh2JxTAhS5jjdbq0t9-64" value="cn=..." style="shape=partialRectangle;html=1;whiteSpace=wrap;connectable=0;fillColor=none;top=0;left=0;bottom=0;right=0;overflow=hidden;fontSize=12;strokeColor=inherit;align=left;spacingLeft=5;" vertex="1" parent="ATNh2JxTAhS5jjdbq0t9-63">
          <mxGeometry width="227" height="30" as="geometry">
            <mxRectangle width="227" height="30" as="alternateBounds" />
          </mxGeometry>
        </mxCell>
        <mxCell id="ATNh2JxTAhS5jjdbq0t9-65" value="&lt;span style=&quot;font-family: Arial, sans-serif; font-size: 14.6667px;&quot;&gt;group&lt;/span&gt;" style="shape=partialRectangle;html=1;whiteSpace=wrap;connectable=0;fillColor=#d80073;top=0;left=0;bottom=0;right=0;overflow=hidden;fontSize=12;strokeColor=#A50040;align=left;spacingLeft=5;fontColor=#ffffff;" vertex="1" parent="ATNh2JxTAhS5jjdbq0t9-63">
          <mxGeometry x="227" width="141" height="30" as="geometry">
            <mxRectangle width="141" height="30" as="alternateBounds" />
          </mxGeometry>
        </mxCell>
        <mxCell id="ATNh2JxTAhS5jjdbq0t9-66" style="shape=tableRow;horizontal=0;startSize=0;swimlaneHead=0;swimlaneBody=0;top=0;left=0;bottom=0;right=0;collapsible=0;dropTarget=0;fillColor=none;points=[[0,0.5],[1,0.5]];portConstraint=eastwest;fontSize=16;strokeColor=inherit;" vertex="1" parent="SHKqWwhrug4iHhSsZHbl-79">
          <mxGeometry y="90" width="367.72" height="30" as="geometry" />
        </mxCell>
        <mxCell id="ATNh2JxTAhS5jjdbq0t9-67" value="cn=Verkehrsunfall" style="shape=partialRectangle;html=1;whiteSpace=wrap;connectable=0;fillColor=none;top=0;left=0;bottom=0;right=0;overflow=hidden;fontSize=12;strokeColor=inherit;align=left;spacingLeft=5;" vertex="1" parent="ATNh2JxTAhS5jjdbq0t9-66">
          <mxGeometry width="227" height="30" as="geometry">
            <mxRectangle width="227" height="30" as="alternateBounds" />
          </mxGeometry>
        </mxCell>
        <mxCell id="ATNh2JxTAhS5jjdbq0t9-68" value="&lt;span style=&quot;font-family: Arial, sans-serif; font-size: 14.6667px;&quot;&gt;group&lt;/span&gt;" style="shape=partialRectangle;html=1;whiteSpace=wrap;connectable=0;fillColor=#d80073;top=0;left=0;bottom=0;right=0;overflow=hidden;fontSize=12;strokeColor=#A50040;align=left;spacingLeft=5;fontColor=#ffffff;" vertex="1" parent="ATNh2JxTAhS5jjdbq0t9-66">
          <mxGeometry x="227" width="141" height="30" as="geometry">
            <mxRectangle width="141" height="30" as="alternateBounds" />
          </mxGeometry>
        </mxCell>
        <mxCell id="SHKqWwhrug4iHhSsZHbl-71" value="" style="shape=table;html=1;whiteSpace=wrap;startSize=0;container=1;collapsible=0;childLayout=tableLayout;columnLines=0;rowLines=0;fontSize=16;strokeColor=default;" parent="1" vertex="1">
          <mxGeometry x="705.51" y="689.92" width="394.49" height="30" as="geometry" />
        </mxCell>
        <mxCell id="SHKqWwhrug4iHhSsZHbl-72" value="" style="shape=tableRow;horizontal=0;startSize=0;swimlaneHead=0;swimlaneBody=0;top=0;left=0;bottom=0;right=0;collapsible=0;dropTarget=0;fillColor=none;points=[[0,0.5],[1,0.5]];portConstraint=eastwest;fontSize=16;strokeColor=inherit;" parent="SHKqWwhrug4iHhSsZHbl-71" vertex="1">
          <mxGeometry width="394.49" height="30" as="geometry" />
        </mxCell>
        <mxCell id="SHKqWwhrug4iHhSsZHbl-73" value="ou=Schutzbereiche" style="shape=partialRectangle;html=1;whiteSpace=wrap;connectable=0;fillColor=none;top=0;left=0;bottom=0;right=0;overflow=hidden;fontSize=12;strokeColor=inherit;align=left;spacingLeft=5;" parent="SHKqWwhrug4iHhSsZHbl-72" vertex="1">
          <mxGeometry width="254" height="30" as="geometry">
            <mxRectangle width="254" height="30" as="alternateBounds" />
          </mxGeometry>
        </mxCell>
        <mxCell id="SHKqWwhrug4iHhSsZHbl-74" value="&lt;span style=&quot;font-family: Arial, sans-serif; font-size: 14.6667px;&quot;&gt;organizationalUnit&lt;/span&gt;" style="shape=partialRectangle;html=1;whiteSpace=wrap;connectable=0;fillColor=#d80073;top=0;left=0;bottom=0;right=0;overflow=hidden;fontSize=12;strokeColor=#A50040;align=left;spacingLeft=5;fontColor=#FFFFFF;" parent="SHKqWwhrug4iHhSsZHbl-72" vertex="1">
          <mxGeometry x="254" width="140" height="30" as="geometry">
            <mxRectangle width="140" height="30" as="alternateBounds" />
          </mxGeometry>
        </mxCell>
        <mxCell id="SHKqWwhrug4iHhSsZHbl-55" value="" style="shape=table;html=1;whiteSpace=wrap;startSize=0;container=1;collapsible=0;childLayout=tableLayout;columnLines=0;rowLines=1;fontSize=16;strokeColor=default;" parent="1" vertex="1">
          <mxGeometry x="732.28" y="719.92" width="367.72" height="120" as="geometry" />
        </mxCell>
        <mxCell id="SHKqWwhrug4iHhSsZHbl-56" value="" style="shape=tableRow;horizontal=0;startSize=0;swimlaneHead=0;swimlaneBody=0;top=0;left=0;bottom=0;right=0;collapsible=0;dropTarget=0;fillColor=none;points=[[0,0.5],[1,0.5]];portConstraint=eastwest;fontSize=16;strokeColor=inherit;" parent="SHKqWwhrug4iHhSsZHbl-55" vertex="1">
          <mxGeometry width="367.72" height="30" as="geometry" />
        </mxCell>
        <mxCell id="SHKqWwhrug4iHhSsZHbl-57" value="cn=Kriminalpolizeiliche Personenakte" style="shape=partialRectangle;html=1;whiteSpace=wrap;connectable=0;fillColor=none;top=0;left=0;bottom=0;right=0;overflow=hidden;fontSize=12;strokeColor=inherit;align=left;spacingLeft=5;" parent="SHKqWwhrug4iHhSsZHbl-56" vertex="1">
          <mxGeometry width="227" height="30" as="geometry">
            <mxRectangle width="227" height="30" as="alternateBounds" />
          </mxGeometry>
        </mxCell>
        <mxCell id="SHKqWwhrug4iHhSsZHbl-58" value="&lt;span style=&quot;font-family: Arial, sans-serif; font-size: 14.6667px;&quot;&gt;group&lt;/span&gt;" style="shape=partialRectangle;html=1;whiteSpace=wrap;connectable=0;fillColor=#d80073;top=0;left=0;bottom=0;right=0;overflow=hidden;fontSize=12;strokeColor=#A50040;align=left;spacingLeft=5;fontColor=#ffffff;" parent="SHKqWwhrug4iHhSsZHbl-56" vertex="1">
          <mxGeometry x="227" width="141" height="30" as="geometry">
            <mxRectangle width="141" height="30" as="alternateBounds" />
          </mxGeometry>
        </mxCell>
        <mxCell id="ATNh2JxTAhS5jjdbq0t9-81" style="shape=tableRow;horizontal=0;startSize=0;swimlaneHead=0;swimlaneBody=0;top=0;left=0;bottom=0;right=0;collapsible=0;dropTarget=0;fillColor=none;points=[[0,0.5],[1,0.5]];portConstraint=eastwest;fontSize=16;strokeColor=inherit;" vertex="1" parent="SHKqWwhrug4iHhSsZHbl-55">
          <mxGeometry y="30" width="367.72" height="30" as="geometry" />
        </mxCell>
        <mxCell id="ATNh2JxTAhS5jjdbq0t9-82" value="cn=Polizeidelikte" style="shape=partialRectangle;html=1;whiteSpace=wrap;connectable=0;fillColor=none;top=0;left=0;bottom=0;right=0;overflow=hidden;fontSize=12;strokeColor=inherit;align=left;spacingLeft=5;" vertex="1" parent="ATNh2JxTAhS5jjdbq0t9-81">
          <mxGeometry width="227" height="30" as="geometry">
            <mxRectangle width="227" height="30" as="alternateBounds" />
          </mxGeometry>
        </mxCell>
        <mxCell id="ATNh2JxTAhS5jjdbq0t9-83" value="&lt;span style=&quot;font-family: Arial, sans-serif; font-size: 14.6667px;&quot;&gt;group&lt;/span&gt;" style="shape=partialRectangle;html=1;whiteSpace=wrap;connectable=0;fillColor=#d80073;top=0;left=0;bottom=0;right=0;overflow=hidden;fontSize=12;strokeColor=#A50040;align=left;spacingLeft=5;fontColor=#ffffff;" vertex="1" parent="ATNh2JxTAhS5jjdbq0t9-81">
          <mxGeometry x="227" width="141" height="30" as="geometry">
            <mxRectangle width="141" height="30" as="alternateBounds" />
          </mxGeometry>
        </mxCell>
        <mxCell id="ATNh2JxTAhS5jjdbq0t9-84" style="shape=tableRow;horizontal=0;startSize=0;swimlaneHead=0;swimlaneBody=0;top=0;left=0;bottom=0;right=0;collapsible=0;dropTarget=0;fillColor=none;points=[[0,0.5],[1,0.5]];portConstraint=eastwest;fontSize=16;strokeColor=inherit;" vertex="1" parent="SHKqWwhrug4iHhSsZHbl-55">
          <mxGeometry y="60" width="367.72" height="30" as="geometry" />
        </mxCell>
        <mxCell id="ATNh2JxTAhS5jjdbq0t9-85" value="cn=..." style="shape=partialRectangle;html=1;whiteSpace=wrap;connectable=0;fillColor=none;top=0;left=0;bottom=0;right=0;overflow=hidden;fontSize=12;strokeColor=inherit;align=left;spacingLeft=5;" vertex="1" parent="ATNh2JxTAhS5jjdbq0t9-84">
          <mxGeometry width="227" height="30" as="geometry">
            <mxRectangle width="227" height="30" as="alternateBounds" />
          </mxGeometry>
        </mxCell>
        <mxCell id="ATNh2JxTAhS5jjdbq0t9-86" value="&lt;span style=&quot;font-family: Arial, sans-serif; font-size: 14.6667px;&quot;&gt;group&lt;/span&gt;" style="shape=partialRectangle;html=1;whiteSpace=wrap;connectable=0;fillColor=#d80073;top=0;left=0;bottom=0;right=0;overflow=hidden;fontSize=12;strokeColor=#A50040;align=left;spacingLeft=5;fontColor=#ffffff;" vertex="1" parent="ATNh2JxTAhS5jjdbq0t9-84">
          <mxGeometry x="227" width="141" height="30" as="geometry">
            <mxRectangle width="141" height="30" as="alternateBounds" />
          </mxGeometry>
        </mxCell>
        <mxCell id="ATNh2JxTAhS5jjdbq0t9-87" style="shape=tableRow;horizontal=0;startSize=0;swimlaneHead=0;swimlaneBody=0;top=0;left=0;bottom=0;right=0;collapsible=0;dropTarget=0;fillColor=none;points=[[0,0.5],[1,0.5]];portConstraint=eastwest;fontSize=16;strokeColor=inherit;" vertex="1" parent="SHKqWwhrug4iHhSsZHbl-55">
          <mxGeometry y="90" width="367.72" height="30" as="geometry" />
        </mxCell>
        <mxCell id="ATNh2JxTAhS5jjdbq0t9-88" value="cn=Staatsschutz" style="shape=partialRectangle;html=1;whiteSpace=wrap;connectable=0;fillColor=none;top=0;left=0;bottom=0;right=0;overflow=hidden;fontSize=12;strokeColor=inherit;align=left;spacingLeft=5;" vertex="1" parent="ATNh2JxTAhS5jjdbq0t9-87">
          <mxGeometry width="227" height="30" as="geometry">
            <mxRectangle width="227" height="30" as="alternateBounds" />
          </mxGeometry>
        </mxCell>
        <mxCell id="ATNh2JxTAhS5jjdbq0t9-89" value="&lt;span style=&quot;font-family: Arial, sans-serif; font-size: 14.6667px;&quot;&gt;group&lt;/span&gt;" style="shape=partialRectangle;html=1;whiteSpace=wrap;connectable=0;fillColor=#d80073;top=0;left=0;bottom=0;right=0;overflow=hidden;fontSize=12;strokeColor=#A50040;align=left;spacingLeft=5;fontColor=#ffffff;" vertex="1" parent="ATNh2JxTAhS5jjdbq0t9-87">
          <mxGeometry x="227" width="141" height="30" as="geometry">
            <mxRectangle width="141" height="30" as="alternateBounds" />
          </mxGeometry>
        </mxCell>
        <mxCell id="SHKqWwhrug4iHhSsZHbl-1" value="ads.jndi.suffix.benutzer" style="rounded=0;whiteSpace=wrap;html=1;align=left;spacingLeft=5;" parent="1" vertex="1">
          <mxGeometry x="270" y="1510" width="251.968" height="29.9212" as="geometry" />
        </mxCell>
        <mxCell id="SHKqWwhrug4iHhSsZHbl-2" value="&lt;p style=&quot;line-height: 22px; margin-top: 2.12mm; margin-bottom: 2.12mm; direction: ltr; background: transparent; font-family: Arial, sans-serif; font-size: 11pt;&quot; class=&quot;western&quot;&gt;ads.jndi.suffix.dienststelle&lt;/p&gt;" style="rounded=0;whiteSpace=wrap;html=1;align=left;spacingLeft=5;" parent="1" vertex="1">
          <mxGeometry x="270" y="1090.0394000000001" width="251.968" height="29.9212" as="geometry" />
        </mxCell>
        <mxCell id="SHKqWwhrug4iHhSsZHbl-18" value="" style="endArrow=none;html=1;rounded=0;edgeStyle=orthogonalEdgeStyle;entryX=0.069;entryY=0.993;entryDx=0;entryDy=0;entryPerimeter=0;" parent="1" edge="1">
          <mxGeometry width="50" height="50" relative="1" as="geometry">
            <mxPoint x="712" y="335.21" as="sourcePoint" />
            <mxPoint x="690" y="309.92175160000005" as="targetPoint" />
          </mxGeometry>
        </mxCell>
        <mxCell id="SHKqWwhrug4iHhSsZHbl-116" value="" style="endArrow=none;html=1;rounded=0;entryX=0.026;entryY=1;entryDx=0;entryDy=0;entryPerimeter=0;exitX=0;exitY=0.5;exitDx=0;exitDy=0;edgeStyle=orthogonalEdgeStyle;" parent="1" source="SHKqWwhrug4iHhSsZHbl-100" target="SHKqWwhrug4iHhSsZHbl-105" edge="1">
          <mxGeometry width="50" height="50" relative="1" as="geometry">
            <mxPoint x="659" y="255" as="sourcePoint" />
            <mxPoint x="643" y="230" as="targetPoint" />
          </mxGeometry>
        </mxCell>
        <mxCell id="SHKqWwhrug4iHhSsZHbl-117" value="" style="endArrow=none;html=1;rounded=0;exitX=0;exitY=0.5;exitDx=0;exitDy=0;edgeStyle=orthogonalEdgeStyle;entryX=0.023;entryY=0.989;entryDx=0;entryDy=0;entryPerimeter=0;" parent="1" source="SHKqWwhrug4iHhSsZHbl-105" edge="1" target="SHKqWwhrug4iHhSsZHbl-109">
          <mxGeometry width="50" height="50" relative="1" as="geometry">
            <mxPoint x="647" y="215.92000000000002" as="sourcePoint" />
            <mxPoint x="629" y="190" as="targetPoint" />
          </mxGeometry>
        </mxCell>
        <mxCell id="iF8vFzWXp7HihGKIjFfX-1" value="" style="shape=table;html=1;whiteSpace=wrap;startSize=0;container=1;collapsible=0;childLayout=tableLayout;columnLines=0;rowLines=0;fontSize=16;strokeColor=default;" vertex="1" parent="1">
          <mxGeometry x="705.51" y="1060" width="394.49" height="30" as="geometry" />
        </mxCell>
        <mxCell id="iF8vFzWXp7HihGKIjFfX-2" value="" style="shape=tableRow;horizontal=0;startSize=0;swimlaneHead=0;swimlaneBody=0;top=0;left=0;bottom=0;right=0;collapsible=0;dropTarget=0;fillColor=none;points=[[0,0.5],[1,0.5]];portConstraint=eastwest;fontSize=16;strokeColor=inherit;" vertex="1" parent="iF8vFzWXp7HihGKIjFfX-1">
          <mxGeometry width="394.49" height="30" as="geometry" />
        </mxCell>
        <mxCell id="iF8vFzWXp7HihGKIjFfX-3" value="ou=Gruppen" style="shape=partialRectangle;html=1;whiteSpace=wrap;connectable=0;fillColor=none;top=0;left=0;bottom=0;right=0;overflow=hidden;fontSize=12;strokeColor=inherit;align=left;spacingLeft=5;" vertex="1" parent="iF8vFzWXp7HihGKIjFfX-2">
          <mxGeometry width="254" height="30" as="geometry">
            <mxRectangle width="254" height="30" as="alternateBounds" />
          </mxGeometry>
        </mxCell>
        <mxCell id="iF8vFzWXp7HihGKIjFfX-4" value="&lt;span style=&quot;font-family: Arial, sans-serif; font-size: 14.6667px;&quot;&gt;organizationalUnit&lt;/span&gt;" style="shape=partialRectangle;html=1;whiteSpace=wrap;connectable=0;fillColor=#d80073;top=0;left=0;bottom=0;right=0;overflow=hidden;fontSize=12;strokeColor=#A50040;align=left;spacingLeft=5;fontColor=#FFFFFF;" vertex="1" parent="iF8vFzWXp7HihGKIjFfX-2">
          <mxGeometry x="254" width="140" height="30" as="geometry">
            <mxRectangle width="140" height="30" as="alternateBounds" />
          </mxGeometry>
        </mxCell>
        <mxCell id="iF8vFzWXp7HihGKIjFfX-5" value="" style="shape=table;html=1;whiteSpace=wrap;startSize=0;container=1;collapsible=0;childLayout=tableLayout;columnLines=0;rowLines=1;fontSize=16;strokeColor=default;" vertex="1" parent="1">
          <mxGeometry x="732.28" y="1090" width="367.72" height="180" as="geometry" />
        </mxCell>
        <mxCell id="iF8vFzWXp7HihGKIjFfX-6" value="" style="shape=tableRow;horizontal=0;startSize=0;swimlaneHead=0;swimlaneBody=0;top=0;left=0;bottom=0;right=0;collapsible=0;dropTarget=0;fillColor=none;points=[[0,0.5],[1,0.5]];portConstraint=eastwest;fontSize=16;strokeColor=inherit;" vertex="1" parent="iF8vFzWXp7HihGKIjFfX-5">
          <mxGeometry width="367.72" height="30" as="geometry" />
        </mxCell>
        <mxCell id="iF8vFzWXp7HihGKIjFfX-7" value="cn=Dienststelle" style="shape=partialRectangle;html=1;whiteSpace=wrap;connectable=0;fillColor=none;top=0;left=0;bottom=0;right=0;overflow=hidden;fontSize=12;strokeColor=#312D2A;align=left;spacingLeft=5;" vertex="1" parent="iF8vFzWXp7HihGKIjFfX-6">
          <mxGeometry width="227" height="30" as="geometry">
            <mxRectangle width="227" height="30" as="alternateBounds" />
          </mxGeometry>
        </mxCell>
        <mxCell id="iF8vFzWXp7HihGKIjFfX-8" value="&lt;span style=&quot;font-family: Arial, sans-serif; font-size: 14.6667px;&quot;&gt;group&lt;/span&gt;" style="shape=partialRectangle;html=1;whiteSpace=wrap;connectable=0;fillColor=#d80073;top=0;left=0;bottom=0;right=0;overflow=hidden;fontSize=12;strokeColor=#312D2A;align=left;spacingLeft=5;fontColor=#ffffff;" vertex="1" parent="iF8vFzWXp7HihGKIjFfX-6">
          <mxGeometry x="227" width="141" height="30" as="geometry">
            <mxRectangle width="141" height="30" as="alternateBounds" />
          </mxGeometry>
        </mxCell>
        <mxCell id="ATNh2JxTAhS5jjdbq0t9-33" style="shape=tableRow;horizontal=0;startSize=0;swimlaneHead=0;swimlaneBody=0;top=0;left=0;bottom=0;right=0;collapsible=0;dropTarget=0;fillColor=none;points=[[0,0.5],[1,0.5]];portConstraint=eastwest;fontSize=16;strokeColor=inherit;" vertex="1" parent="iF8vFzWXp7HihGKIjFfX-5">
          <mxGeometry y="30" width="367.72" height="30" as="geometry" />
        </mxCell>
        <mxCell id="ATNh2JxTAhS5jjdbq0t9-34" value="cn=Dienstgruppe" style="shape=partialRectangle;html=1;whiteSpace=wrap;connectable=0;fillColor=none;top=0;left=0;bottom=0;right=0;overflow=hidden;fontSize=12;strokeColor=default;align=left;spacingLeft=5;" vertex="1" parent="ATNh2JxTAhS5jjdbq0t9-33">
          <mxGeometry width="227" height="30" as="geometry">
            <mxRectangle width="227" height="30" as="alternateBounds" />
          </mxGeometry>
        </mxCell>
        <mxCell id="ATNh2JxTAhS5jjdbq0t9-35" value="&lt;span style=&quot;font-family: Arial, sans-serif; font-size: 14.6667px;&quot;&gt;group&lt;/span&gt;" style="shape=partialRectangle;html=1;whiteSpace=wrap;connectable=0;fillColor=#d80073;top=0;left=0;bottom=0;right=0;overflow=hidden;fontSize=12;strokeColor=#A50040;align=left;spacingLeft=5;fontColor=#ffffff;" vertex="1" parent="ATNh2JxTAhS5jjdbq0t9-33">
          <mxGeometry x="227" width="141" height="30" as="geometry">
            <mxRectangle width="141" height="30" as="alternateBounds" />
          </mxGeometry>
        </mxCell>
        <mxCell id="ATNh2JxTAhS5jjdbq0t9-36" style="shape=tableRow;horizontal=0;startSize=0;swimlaneHead=0;swimlaneBody=0;top=0;left=0;bottom=0;right=0;collapsible=0;dropTarget=0;fillColor=none;points=[[0,0.5],[1,0.5]];portConstraint=eastwest;fontSize=16;strokeColor=inherit;" vertex="1" parent="iF8vFzWXp7HihGKIjFfX-5">
          <mxGeometry y="60" width="367.72" height="30" as="geometry" />
        </mxCell>
        <mxCell id="ATNh2JxTAhS5jjdbq0t9-37" value="cn=Dienststellengruppe" style="shape=partialRectangle;html=1;whiteSpace=wrap;connectable=0;fillColor=none;top=0;left=0;bottom=0;right=0;overflow=hidden;fontSize=12;strokeColor=default;align=left;spacingLeft=5;strokeWidth=3;" vertex="1" parent="ATNh2JxTAhS5jjdbq0t9-36">
          <mxGeometry width="227" height="30" as="geometry">
            <mxRectangle width="227" height="30" as="alternateBounds" />
          </mxGeometry>
        </mxCell>
        <mxCell id="ATNh2JxTAhS5jjdbq0t9-38" value="&lt;span style=&quot;font-family: Arial, sans-serif; font-size: 14.6667px;&quot;&gt;group&lt;/span&gt;" style="shape=partialRectangle;html=1;whiteSpace=wrap;connectable=0;fillColor=#d80073;top=0;left=0;bottom=0;right=0;overflow=hidden;fontSize=12;strokeColor=#A50040;align=left;spacingLeft=5;fontColor=#ffffff;" vertex="1" parent="ATNh2JxTAhS5jjdbq0t9-36">
          <mxGeometry x="227" width="141" height="30" as="geometry">
            <mxRectangle width="141" height="30" as="alternateBounds" />
          </mxGeometry>
        </mxCell>
        <mxCell id="ATNh2JxTAhS5jjdbq0t9-39" style="shape=tableRow;horizontal=0;startSize=0;swimlaneHead=0;swimlaneBody=0;top=0;left=0;bottom=0;right=0;collapsible=0;dropTarget=0;fillColor=none;points=[[0,0.5],[1,0.5]];portConstraint=eastwest;fontSize=16;strokeColor=inherit;" vertex="1" parent="iF8vFzWXp7HihGKIjFfX-5">
          <mxGeometry y="90" width="367.72" height="30" as="geometry" />
        </mxCell>
        <mxCell id="ATNh2JxTAhS5jjdbq0t9-40" value="&lt;meta charset=&quot;utf-8&quot;&gt;&lt;span style=&quot;color: rgb(0, 0, 0); font-family: Helvetica; font-size: 12px; font-style: normal; font-variant-ligatures: normal; font-variant-caps: normal; font-weight: 400; letter-spacing: normal; orphans: 2; text-align: left; text-indent: 0px; text-transform: none; widows: 2; word-spacing: 0px; -webkit-text-stroke-width: 0px; white-space: normal; background-color: rgb(251, 251, 251); text-decoration-thickness: initial; text-decoration-style: initial; text-decoration-color: initial; display: inline !important; float: none;&quot;&gt;cn=Vertretungsgruppe&lt;/span&gt;" style="shape=partialRectangle;html=1;whiteSpace=wrap;connectable=0;fillColor=none;top=0;left=0;bottom=0;right=0;overflow=hidden;fontSize=12;strokeColor=default;align=left;spacingLeft=5;strokeWidth=3;" vertex="1" parent="ATNh2JxTAhS5jjdbq0t9-39">
          <mxGeometry width="227" height="30" as="geometry">
            <mxRectangle width="227" height="30" as="alternateBounds" />
          </mxGeometry>
        </mxCell>
        <mxCell id="ATNh2JxTAhS5jjdbq0t9-41" value="&lt;span style=&quot;font-family: Arial, sans-serif; font-size: 14.6667px;&quot;&gt;group&lt;/span&gt;" style="shape=partialRectangle;html=1;whiteSpace=wrap;connectable=0;fillColor=#d80073;top=0;left=0;bottom=0;right=0;overflow=hidden;fontSize=12;strokeColor=#A50040;align=left;spacingLeft=5;fontColor=#ffffff;" vertex="1" parent="ATNh2JxTAhS5jjdbq0t9-39">
          <mxGeometry x="227" width="141" height="30" as="geometry">
            <mxRectangle width="141" height="30" as="alternateBounds" />
          </mxGeometry>
        </mxCell>
        <mxCell id="ATNh2JxTAhS5jjdbq0t9-42" style="shape=tableRow;horizontal=0;startSize=0;swimlaneHead=0;swimlaneBody=0;top=0;left=0;bottom=0;right=0;collapsible=0;dropTarget=0;fillColor=none;points=[[0,0.5],[1,0.5]];portConstraint=eastwest;fontSize=16;strokeColor=inherit;" vertex="1" parent="iF8vFzWXp7HihGKIjFfX-5">
          <mxGeometry y="120" width="367.72" height="30" as="geometry" />
        </mxCell>
        <mxCell id="ATNh2JxTAhS5jjdbq0t9-43" value="cn=Sonderrechtgruppe" style="shape=partialRectangle;html=1;whiteSpace=wrap;connectable=0;fillColor=none;top=0;left=0;bottom=0;right=0;overflow=hidden;fontSize=12;strokeColor=default;align=left;spacingLeft=5;strokeWidth=3;" vertex="1" parent="ATNh2JxTAhS5jjdbq0t9-42">
          <mxGeometry width="227" height="30" as="geometry">
            <mxRectangle width="227" height="30" as="alternateBounds" />
          </mxGeometry>
        </mxCell>
        <mxCell id="ATNh2JxTAhS5jjdbq0t9-44" value="&lt;span style=&quot;font-family: Arial, sans-serif; font-size: 14.6667px;&quot;&gt;group&lt;/span&gt;" style="shape=partialRectangle;html=1;whiteSpace=wrap;connectable=0;fillColor=#d80073;top=0;left=0;bottom=0;right=0;overflow=hidden;fontSize=12;strokeColor=#A50040;align=left;spacingLeft=5;fontColor=#ffffff;" vertex="1" parent="ATNh2JxTAhS5jjdbq0t9-42">
          <mxGeometry x="227" width="141" height="30" as="geometry">
            <mxRectangle width="141" height="30" as="alternateBounds" />
          </mxGeometry>
        </mxCell>
        <mxCell id="ATNh2JxTAhS5jjdbq0t9-45" style="shape=tableRow;horizontal=0;startSize=0;swimlaneHead=0;swimlaneBody=0;top=0;left=0;bottom=0;right=0;collapsible=0;dropTarget=0;fillColor=none;points=[[0,0.5],[1,0.5]];portConstraint=eastwest;fontSize=16;strokeColor=inherit;" vertex="1" parent="iF8vFzWXp7HihGKIjFfX-5">
          <mxGeometry y="150" width="367.72" height="30" as="geometry" />
        </mxCell>
        <mxCell id="ATNh2JxTAhS5jjdbq0t9-46" value="cn=Test/&#39;gruppe" style="shape=partialRectangle;html=1;whiteSpace=wrap;connectable=0;fillColor=none;top=0;left=0;bottom=0;right=0;overflow=hidden;fontSize=12;strokeColor=default;align=left;spacingLeft=5;strokeWidth=3;" vertex="1" parent="ATNh2JxTAhS5jjdbq0t9-45">
          <mxGeometry width="227" height="30" as="geometry">
            <mxRectangle width="227" height="30" as="alternateBounds" />
          </mxGeometry>
        </mxCell>
        <mxCell id="ATNh2JxTAhS5jjdbq0t9-47" value="&lt;span style=&quot;font-family: Arial, sans-serif; font-size: 14.6667px;&quot;&gt;group&lt;/span&gt;" style="shape=partialRectangle;html=1;whiteSpace=wrap;connectable=0;fillColor=#d80073;top=0;left=0;bottom=0;right=0;overflow=hidden;fontSize=12;strokeColor=#A50040;align=left;spacingLeft=5;fontColor=#ffffff;" vertex="1" parent="ATNh2JxTAhS5jjdbq0t9-45">
          <mxGeometry x="227" width="141" height="30" as="geometry">
            <mxRectangle width="141" height="30" as="alternateBounds" />
          </mxGeometry>
        </mxCell>
        <mxCell id="iF8vFzWXp7HihGKIjFfX-18" value="" style="shape=table;html=1;whiteSpace=wrap;startSize=0;container=1;collapsible=0;childLayout=tableLayout;columnLines=0;rowLines=0;fontSize=16;strokeColor=default;" vertex="1" parent="1">
          <mxGeometry x="705.5103999999999" y="320" width="394.49" height="30" as="geometry" />
        </mxCell>
        <mxCell id="iF8vFzWXp7HihGKIjFfX-19" value="" style="shape=tableRow;horizontal=0;startSize=0;swimlaneHead=0;swimlaneBody=0;top=0;left=0;bottom=0;right=0;collapsible=0;dropTarget=0;fillColor=none;points=[[0,0.5],[1,0.5]];portConstraint=eastwest;fontSize=16;strokeColor=inherit;" vertex="1" parent="iF8vFzWXp7HihGKIjFfX-18">
          <mxGeometry width="394.49" height="30" as="geometry" />
        </mxCell>
        <mxCell id="iF8vFzWXp7HihGKIjFfX-20" value="ou=Funktionsberechtigungen" style="shape=partialRectangle;html=1;whiteSpace=wrap;connectable=0;fillColor=none;top=0;left=0;bottom=0;right=0;overflow=hidden;fontSize=12;strokeColor=inherit;align=left;spacingLeft=5;" vertex="1" parent="iF8vFzWXp7HihGKIjFfX-19">
          <mxGeometry width="254" height="30" as="geometry">
            <mxRectangle width="254" height="30" as="alternateBounds" />
          </mxGeometry>
        </mxCell>
        <mxCell id="iF8vFzWXp7HihGKIjFfX-21" value="&lt;span style=&quot;font-family: Arial, sans-serif; font-size: 14.6667px;&quot;&gt;organizationalUnit&lt;/span&gt;" style="shape=partialRectangle;html=1;whiteSpace=wrap;connectable=0;fillColor=#d80073;top=0;left=0;bottom=0;right=0;overflow=hidden;fontSize=12;strokeColor=#A50040;align=left;spacingLeft=5;fontColor=#FFFFFF;" vertex="1" parent="iF8vFzWXp7HihGKIjFfX-19">
          <mxGeometry x="254" width="140" height="30" as="geometry">
            <mxRectangle width="140" height="30" as="alternateBounds" />
          </mxGeometry>
        </mxCell>
        <mxCell id="iF8vFzWXp7HihGKIjFfX-22" value="" style="shape=table;html=1;whiteSpace=wrap;startSize=0;container=1;collapsible=0;childLayout=tableLayout;columnLines=0;rowLines=1;fontSize=16;strokeColor=default;swimlaneLine=1;shadow=0;rounded=0;separatorColor=none;fixedRows=0;" vertex="1" parent="1">
          <mxGeometry x="732.2819999999999" y="350" width="368.62" height="150" as="geometry" />
        </mxCell>
        <mxCell id="iF8vFzWXp7HihGKIjFfX-23" value="" style="shape=tableRow;horizontal=0;startSize=0;swimlaneHead=0;swimlaneBody=0;top=0;left=0;bottom=0;right=0;collapsible=0;dropTarget=0;fillColor=none;points=[[0,0.5],[1,0.5]];portConstraint=eastwest;fontSize=16;strokeColor=inherit;" vertex="1" parent="iF8vFzWXp7HihGKIjFfX-22">
          <mxGeometry width="368.62" height="30" as="geometry" />
        </mxCell>
        <mxCell id="iF8vFzWXp7HihGKIjFfX-24" value="cn=grundrecht" style="shape=partialRectangle;html=1;whiteSpace=wrap;connectable=0;fillColor=none;top=0;left=0;bottom=0;right=0;overflow=hidden;fontSize=12;strokeColor=inherit;align=left;spacingLeft=5;" vertex="1" parent="iF8vFzWXp7HihGKIjFfX-23">
          <mxGeometry width="227" height="30" as="geometry">
            <mxRectangle width="227" height="30" as="alternateBounds" />
          </mxGeometry>
        </mxCell>
        <mxCell id="iF8vFzWXp7HihGKIjFfX-25" value="&lt;span style=&quot;font-family: Arial, sans-serif; font-size: 14.6667px;&quot;&gt;group&lt;/span&gt;" style="shape=partialRectangle;html=1;whiteSpace=wrap;connectable=0;fillColor=#d80073;top=0;left=0;bottom=0;right=0;overflow=hidden;fontSize=12;strokeColor=#A50040;align=left;spacingLeft=5;fontColor=#ffffff;" vertex="1" parent="iF8vFzWXp7HihGKIjFfX-23">
          <mxGeometry x="227" width="142" height="30" as="geometry">
            <mxRectangle width="142" height="30" as="alternateBounds" />
          </mxGeometry>
        </mxCell>
        <mxCell id="ATNh2JxTAhS5jjdbq0t9-69" style="shape=tableRow;horizontal=0;startSize=0;swimlaneHead=0;swimlaneBody=0;top=0;left=0;bottom=0;right=0;collapsible=0;dropTarget=0;fillColor=none;points=[[0,0.5],[1,0.5]];portConstraint=eastwest;fontSize=16;strokeColor=inherit;" vertex="1" parent="iF8vFzWXp7HihGKIjFfX-22">
          <mxGeometry y="30" width="368.62" height="30" as="geometry" />
        </mxCell>
        <mxCell id="ATNh2JxTAhS5jjdbq0t9-70" value="cn=ersuchen_erstellen_versenden" style="shape=partialRectangle;html=1;whiteSpace=wrap;connectable=0;fillColor=none;top=0;left=0;bottom=0;right=0;overflow=hidden;fontSize=12;strokeColor=inherit;align=left;spacingLeft=5;" vertex="1" parent="ATNh2JxTAhS5jjdbq0t9-69">
          <mxGeometry width="227" height="30" as="geometry">
            <mxRectangle width="227" height="30" as="alternateBounds" />
          </mxGeometry>
        </mxCell>
        <mxCell id="ATNh2JxTAhS5jjdbq0t9-71" value="&lt;span style=&quot;font-family: Arial, sans-serif; font-size: 14.6667px;&quot;&gt;group&lt;/span&gt;" style="shape=partialRectangle;html=1;whiteSpace=wrap;connectable=0;fillColor=#d80073;top=0;left=0;bottom=0;right=0;overflow=hidden;fontSize=12;strokeColor=#A50040;align=left;spacingLeft=5;fontColor=#ffffff;" vertex="1" parent="ATNh2JxTAhS5jjdbq0t9-69">
          <mxGeometry x="227" width="142" height="30" as="geometry">
            <mxRectangle width="142" height="30" as="alternateBounds" />
          </mxGeometry>
        </mxCell>
        <mxCell id="ATNh2JxTAhS5jjdbq0t9-72" style="shape=tableRow;horizontal=0;startSize=0;swimlaneHead=0;swimlaneBody=0;top=0;left=0;bottom=0;right=0;collapsible=0;dropTarget=0;fillColor=none;points=[[0,0.5],[1,0.5]];portConstraint=eastwest;fontSize=16;strokeColor=inherit;" vertex="1" parent="iF8vFzWXp7HihGKIjFfX-22">
          <mxGeometry y="60" width="368.62" height="30" as="geometry" />
        </mxCell>
        <mxCell id="ATNh2JxTAhS5jjdbq0t9-73" value="cn=..." style="shape=partialRectangle;html=1;whiteSpace=wrap;connectable=0;fillColor=none;top=0;left=0;bottom=0;right=0;overflow=hidden;fontSize=12;strokeColor=inherit;align=left;spacingLeft=5;" vertex="1" parent="ATNh2JxTAhS5jjdbq0t9-72">
          <mxGeometry width="227" height="30" as="geometry">
            <mxRectangle width="227" height="30" as="alternateBounds" />
          </mxGeometry>
        </mxCell>
        <mxCell id="ATNh2JxTAhS5jjdbq0t9-74" value="&lt;span style=&quot;font-family: Arial, sans-serif; font-size: 14.6667px;&quot;&gt;group&lt;/span&gt;" style="shape=partialRectangle;html=1;whiteSpace=wrap;connectable=0;fillColor=#d80073;top=0;left=0;bottom=0;right=0;overflow=hidden;fontSize=12;strokeColor=#A50040;align=left;spacingLeft=5;fontColor=#ffffff;" vertex="1" parent="ATNh2JxTAhS5jjdbq0t9-72">
          <mxGeometry x="227" width="142" height="30" as="geometry">
            <mxRectangle width="142" height="30" as="alternateBounds" />
          </mxGeometry>
        </mxCell>
        <mxCell id="ATNh2JxTAhS5jjdbq0t9-75" style="shape=tableRow;horizontal=0;startSize=0;swimlaneHead=0;swimlaneBody=0;top=0;left=0;bottom=0;right=0;collapsible=0;dropTarget=0;fillColor=none;points=[[0,0.5],[1,0.5]];portConstraint=eastwest;fontSize=16;strokeColor=inherit;" vertex="1" parent="iF8vFzWXp7HihGKIjFfX-22">
          <mxGeometry y="90" width="368.62" height="30" as="geometry" />
        </mxCell>
        <mxCell id="ATNh2JxTAhS5jjdbq0t9-76" value="cn=goodview_starten" style="shape=partialRectangle;html=1;whiteSpace=wrap;connectable=0;fillColor=none;top=0;left=0;bottom=0;right=0;overflow=hidden;fontSize=12;strokeColor=inherit;align=left;spacingLeft=5;" vertex="1" parent="ATNh2JxTAhS5jjdbq0t9-75">
          <mxGeometry width="227" height="30" as="geometry">
            <mxRectangle width="227" height="30" as="alternateBounds" />
          </mxGeometry>
        </mxCell>
        <mxCell id="ATNh2JxTAhS5jjdbq0t9-77" value="&lt;span style=&quot;font-family: Arial, sans-serif; font-size: 14.6667px;&quot;&gt;group&lt;/span&gt;" style="shape=partialRectangle;html=1;whiteSpace=wrap;connectable=0;fillColor=#d80073;top=0;left=0;bottom=0;right=0;overflow=hidden;fontSize=12;strokeColor=#A50040;align=left;spacingLeft=5;fontColor=#ffffff;" vertex="1" parent="ATNh2JxTAhS5jjdbq0t9-75">
          <mxGeometry x="227" width="142" height="30" as="geometry">
            <mxRectangle width="142" height="30" as="alternateBounds" />
          </mxGeometry>
        </mxCell>
        <mxCell id="ATNh2JxTAhS5jjdbq0t9-78" style="shape=tableRow;horizontal=0;startSize=0;swimlaneHead=0;swimlaneBody=0;top=0;left=0;bottom=0;right=0;collapsible=0;dropTarget=0;fillColor=none;points=[[0,0.5],[1,0.5]];portConstraint=eastwest;fontSize=16;strokeColor=inherit;" vertex="1" parent="iF8vFzWXp7HihGKIjFfX-22">
          <mxGeometry y="120" width="368.62" height="30" as="geometry" />
        </mxCell>
        <mxCell id="ATNh2JxTAhS5jjdbq0t9-79" value="cn=standardrecherche_durchfuehren" style="shape=partialRectangle;html=1;whiteSpace=wrap;connectable=0;fillColor=none;top=0;left=0;bottom=0;right=0;overflow=hidden;fontSize=12;strokeColor=inherit;align=left;spacingLeft=5;" vertex="1" parent="ATNh2JxTAhS5jjdbq0t9-78">
          <mxGeometry width="227" height="30" as="geometry">
            <mxRectangle width="227" height="30" as="alternateBounds" />
          </mxGeometry>
        </mxCell>
        <mxCell id="ATNh2JxTAhS5jjdbq0t9-80" value="&lt;span style=&quot;font-family: Arial, sans-serif; font-size: 14.6667px;&quot;&gt;group&lt;/span&gt;" style="shape=partialRectangle;html=1;whiteSpace=wrap;connectable=0;fillColor=#d80073;top=0;left=0;bottom=0;right=0;overflow=hidden;fontSize=12;strokeColor=#A50040;align=left;spacingLeft=5;fontColor=#ffffff;" vertex="1" parent="ATNh2JxTAhS5jjdbq0t9-78">
          <mxGeometry x="227" width="142" height="30" as="geometry">
            <mxRectangle width="142" height="30" as="alternateBounds" />
          </mxGeometry>
        </mxCell>
        <mxCell id="iF8vFzWXp7HihGKIjFfX-27" value="" style="shape=table;html=1;whiteSpace=wrap;startSize=0;container=1;collapsible=0;childLayout=tableLayout;columnLines=0;rowLines=0;fontSize=16;strokeColor=default;" vertex="1" parent="1">
          <mxGeometry x="705.51" y="860" width="394.49" height="30" as="geometry" />
        </mxCell>
        <mxCell id="iF8vFzWXp7HihGKIjFfX-28" value="" style="shape=tableRow;horizontal=0;startSize=0;swimlaneHead=0;swimlaneBody=0;top=0;left=0;bottom=0;right=0;collapsible=0;dropTarget=0;fillColor=none;points=[[0,0.5],[1,0.5]];portConstraint=eastwest;fontSize=16;strokeColor=inherit;" vertex="1" parent="iF8vFzWXp7HihGKIjFfX-27">
          <mxGeometry width="394.49" height="30" as="geometry" />
        </mxCell>
        <mxCell id="iF8vFzWXp7HihGKIjFfX-29" value="ou=Rollen" style="shape=partialRectangle;html=1;whiteSpace=wrap;connectable=0;fillColor=none;top=0;left=0;bottom=0;right=0;overflow=hidden;fontSize=12;strokeColor=inherit;align=left;spacingLeft=5;" vertex="1" parent="iF8vFzWXp7HihGKIjFfX-28">
          <mxGeometry width="254" height="30" as="geometry">
            <mxRectangle width="254" height="30" as="alternateBounds" />
          </mxGeometry>
        </mxCell>
        <mxCell id="iF8vFzWXp7HihGKIjFfX-30" value="&lt;span style=&quot;font-family: Arial, sans-serif; font-size: 14.6667px;&quot;&gt;organizationalUnit&lt;/span&gt;" style="shape=partialRectangle;html=1;whiteSpace=wrap;connectable=0;fillColor=#d80073;top=0;left=0;bottom=0;right=0;overflow=hidden;fontSize=12;strokeColor=#A50040;align=left;spacingLeft=5;fontColor=#FFFFFF;" vertex="1" parent="iF8vFzWXp7HihGKIjFfX-28">
          <mxGeometry x="254" width="140" height="30" as="geometry">
            <mxRectangle width="140" height="30" as="alternateBounds" />
          </mxGeometry>
        </mxCell>
        <mxCell id="iF8vFzWXp7HihGKIjFfX-66" value="" style="shape=table;html=1;whiteSpace=wrap;startSize=0;container=1;collapsible=0;childLayout=tableLayout;columnLines=0;rowLines=1;fontSize=16;strokeColor=default;" vertex="1" parent="1">
          <mxGeometry x="732.28" y="890" width="367.72" height="150" as="geometry" />
        </mxCell>
        <mxCell id="iF8vFzWXp7HihGKIjFfX-67" value="" style="shape=tableRow;horizontal=0;startSize=0;swimlaneHead=0;swimlaneBody=0;top=0;left=0;bottom=0;right=0;collapsible=0;dropTarget=0;fillColor=none;points=[[0,0.5],[1,0.5]];portConstraint=eastwest;fontSize=16;strokeColor=inherit;" vertex="1" parent="iF8vFzWXp7HihGKIjFfX-66">
          <mxGeometry width="367.72" height="30" as="geometry" />
        </mxCell>
        <mxCell id="iF8vFzWXp7HihGKIjFfX-68" value="cn=Superuser" style="shape=partialRectangle;html=1;whiteSpace=wrap;connectable=0;fillColor=none;top=0;left=0;bottom=0;right=0;overflow=hidden;fontSize=12;strokeColor=inherit;align=left;spacingLeft=5;" vertex="1" parent="iF8vFzWXp7HihGKIjFfX-67">
          <mxGeometry width="227" height="30" as="geometry">
            <mxRectangle width="227" height="30" as="alternateBounds" />
          </mxGeometry>
        </mxCell>
        <mxCell id="iF8vFzWXp7HihGKIjFfX-69" value="&lt;span style=&quot;font-family: Arial, sans-serif; font-size: 14.6667px;&quot;&gt;group&lt;/span&gt;" style="shape=partialRectangle;html=1;whiteSpace=wrap;connectable=0;fillColor=#d80073;top=0;left=0;bottom=0;right=0;overflow=hidden;fontSize=12;strokeColor=#A50040;align=left;spacingLeft=5;fontColor=#ffffff;" vertex="1" parent="iF8vFzWXp7HihGKIjFfX-67">
          <mxGeometry x="227" width="141" height="30" as="geometry">
            <mxRectangle width="141" height="30" as="alternateBounds" />
          </mxGeometry>
        </mxCell>
        <mxCell id="ATNh2JxTAhS5jjdbq0t9-48" style="shape=tableRow;horizontal=0;startSize=0;swimlaneHead=0;swimlaneBody=0;top=0;left=0;bottom=0;right=0;collapsible=0;dropTarget=0;fillColor=none;points=[[0,0.5],[1,0.5]];portConstraint=eastwest;fontSize=16;strokeColor=inherit;" vertex="1" parent="iF8vFzWXp7HihGKIjFfX-66">
          <mxGeometry y="30" width="367.72" height="30" as="geometry" />
        </mxCell>
        <mxCell id="ATNh2JxTAhS5jjdbq0t9-49" value="cn=SuperuserNext" style="shape=partialRectangle;html=1;whiteSpace=wrap;connectable=0;fillColor=none;top=0;left=0;bottom=0;right=0;overflow=hidden;fontSize=12;strokeColor=inherit;align=left;spacingLeft=5;" vertex="1" parent="ATNh2JxTAhS5jjdbq0t9-48">
          <mxGeometry width="227" height="30" as="geometry">
            <mxRectangle width="227" height="30" as="alternateBounds" />
          </mxGeometry>
        </mxCell>
        <mxCell id="ATNh2JxTAhS5jjdbq0t9-50" value="&lt;span style=&quot;font-family: Arial, sans-serif; font-size: 14.6667px;&quot;&gt;group&lt;/span&gt;" style="shape=partialRectangle;html=1;whiteSpace=wrap;connectable=0;fillColor=#d80073;top=0;left=0;bottom=0;right=0;overflow=hidden;fontSize=12;strokeColor=#A50040;align=left;spacingLeft=5;fontColor=#ffffff;" vertex="1" parent="ATNh2JxTAhS5jjdbq0t9-48">
          <mxGeometry x="227" width="141" height="30" as="geometry">
            <mxRectangle width="141" height="30" as="alternateBounds" />
          </mxGeometry>
        </mxCell>
        <mxCell id="ATNh2JxTAhS5jjdbq0t9-51" style="shape=tableRow;horizontal=0;startSize=0;swimlaneHead=0;swimlaneBody=0;top=0;left=0;bottom=0;right=0;collapsible=0;dropTarget=0;fillColor=none;points=[[0,0.5],[1,0.5]];portConstraint=eastwest;fontSize=16;strokeColor=inherit;" vertex="1" parent="iF8vFzWXp7HihGKIjFfX-66">
          <mxGeometry y="60" width="367.72" height="30" as="geometry" />
        </mxCell>
        <mxCell id="ATNh2JxTAhS5jjdbq0t9-52" value="cn=..." style="shape=partialRectangle;html=1;whiteSpace=wrap;connectable=0;fillColor=none;top=0;left=0;bottom=0;right=0;overflow=hidden;fontSize=12;strokeColor=inherit;align=left;spacingLeft=5;" vertex="1" parent="ATNh2JxTAhS5jjdbq0t9-51">
          <mxGeometry width="227" height="30" as="geometry">
            <mxRectangle width="227" height="30" as="alternateBounds" />
          </mxGeometry>
        </mxCell>
        <mxCell id="ATNh2JxTAhS5jjdbq0t9-53" value="&lt;span style=&quot;font-family: Arial, sans-serif; font-size: 14.6667px;&quot;&gt;group&lt;/span&gt;" style="shape=partialRectangle;html=1;whiteSpace=wrap;connectable=0;fillColor=#d80073;top=0;left=0;bottom=0;right=0;overflow=hidden;fontSize=12;strokeColor=#A50040;align=left;spacingLeft=5;fontColor=#ffffff;" vertex="1" parent="ATNh2JxTAhS5jjdbq0t9-51">
          <mxGeometry x="227" width="141" height="30" as="geometry">
            <mxRectangle width="141" height="30" as="alternateBounds" />
          </mxGeometry>
        </mxCell>
        <mxCell id="ATNh2JxTAhS5jjdbq0t9-54" style="shape=tableRow;horizontal=0;startSize=0;swimlaneHead=0;swimlaneBody=0;top=0;left=0;bottom=0;right=0;collapsible=0;dropTarget=0;fillColor=none;points=[[0,0.5],[1,0.5]];portConstraint=eastwest;fontSize=16;strokeColor=inherit;" vertex="1" parent="iF8vFzWXp7HihGKIjFfX-66">
          <mxGeometry y="90" width="367.72" height="30" as="geometry" />
        </mxCell>
        <mxCell id="ATNh2JxTAhS5jjdbq0t9-55" value="cn=iVBS-Sachbearbeiter" style="shape=partialRectangle;html=1;whiteSpace=wrap;connectable=0;fillColor=none;top=0;left=0;bottom=0;right=0;overflow=hidden;fontSize=12;strokeColor=inherit;align=left;spacingLeft=5;" vertex="1" parent="ATNh2JxTAhS5jjdbq0t9-54">
          <mxGeometry width="227" height="30" as="geometry">
            <mxRectangle width="227" height="30" as="alternateBounds" />
          </mxGeometry>
        </mxCell>
        <mxCell id="ATNh2JxTAhS5jjdbq0t9-56" value="&lt;span style=&quot;font-family: Arial, sans-serif; font-size: 14.6667px;&quot;&gt;group&lt;/span&gt;" style="shape=partialRectangle;html=1;whiteSpace=wrap;connectable=0;fillColor=#d80073;top=0;left=0;bottom=0;right=0;overflow=hidden;fontSize=12;strokeColor=#A50040;align=left;spacingLeft=5;fontColor=#ffffff;" vertex="1" parent="ATNh2JxTAhS5jjdbq0t9-54">
          <mxGeometry x="227" width="141" height="30" as="geometry">
            <mxRectangle width="141" height="30" as="alternateBounds" />
          </mxGeometry>
        </mxCell>
        <mxCell id="ATNh2JxTAhS5jjdbq0t9-57" style="shape=tableRow;horizontal=0;startSize=0;swimlaneHead=0;swimlaneBody=0;top=0;left=0;bottom=0;right=0;collapsible=0;dropTarget=0;fillColor=none;points=[[0,0.5],[1,0.5]];portConstraint=eastwest;fontSize=16;strokeColor=inherit;" vertex="1" parent="iF8vFzWXp7HihGKIjFfX-66">
          <mxGeometry y="120" width="367.72" height="30" as="geometry" />
        </mxCell>
        <mxCell id="ATNh2JxTAhS5jjdbq0t9-58" value="cn=iVBS-Sachbearbeiter-Min" style="shape=partialRectangle;html=1;whiteSpace=wrap;connectable=0;fillColor=none;top=0;left=0;bottom=0;right=0;overflow=hidden;fontSize=12;strokeColor=inherit;align=left;spacingLeft=5;" vertex="1" parent="ATNh2JxTAhS5jjdbq0t9-57">
          <mxGeometry width="227" height="30" as="geometry">
            <mxRectangle width="227" height="30" as="alternateBounds" />
          </mxGeometry>
        </mxCell>
        <mxCell id="ATNh2JxTAhS5jjdbq0t9-59" value="&lt;span style=&quot;font-family: Arial, sans-serif; font-size: 14.6667px;&quot;&gt;group&lt;/span&gt;" style="shape=partialRectangle;html=1;whiteSpace=wrap;connectable=0;fillColor=#d80073;top=0;left=0;bottom=0;right=0;overflow=hidden;fontSize=12;strokeColor=#A50040;align=left;spacingLeft=5;fontColor=#ffffff;" vertex="1" parent="ATNh2JxTAhS5jjdbq0t9-57">
          <mxGeometry x="227" width="141" height="30" as="geometry">
            <mxRectangle width="141" height="30" as="alternateBounds" />
          </mxGeometry>
        </mxCell>
        <mxCell id="iF8vFzWXp7HihGKIjFfX-226" value="" style="endArrow=classic;html=1;rounded=0;exitX=1.003;exitY=0.757;exitDx=0;exitDy=0;edgeStyle=elbowEdgeStyle;entryX=0.999;entryY=0.249;entryDx=0;entryDy=0;fillColor=#dae8fc;strokeColor=#6c8ebf;exitPerimeter=0;entryPerimeter=0;" edge="1" parent="iF8vFzWXp7HihGKIjFfX-66" source="ATNh2JxTAhS5jjdbq0t9-54" target="ATNh2JxTAhS5jjdbq0t9-57">
          <mxGeometry width="50" height="50" relative="1" as="geometry">
            <mxPoint x="368.72" y="178" as="sourcePoint" />
            <mxPoint x="367.72" y="-455" as="targetPoint" />
            <Array as="points">
              <mxPoint x="397.72" y="-140" />
            </Array>
          </mxGeometry>
        </mxCell>
        <mxCell id="iF8vFzWXp7HihGKIjFfX-227" value="member" style="edgeLabel;html=1;align=center;verticalAlign=middle;resizable=0;points=[];" vertex="1" connectable="0" parent="iF8vFzWXp7HihGKIjFfX-226">
          <mxGeometry x="-0.1485" y="-2" relative="1" as="geometry">
            <mxPoint y="5" as="offset" />
          </mxGeometry>
        </mxCell>
        <mxCell id="iF8vFzWXp7HihGKIjFfX-87" value="" style="shape=table;html=1;whiteSpace=wrap;startSize=0;container=1;collapsible=0;childLayout=tableLayout;columnLines=0;rowLines=0;fontSize=16;strokeColor=default;" vertex="1" parent="1">
          <mxGeometry x="673.99" y="1540" width="416.77" height="30" as="geometry" />
        </mxCell>
        <mxCell id="iF8vFzWXp7HihGKIjFfX-88" value="" style="shape=tableRow;horizontal=0;startSize=0;swimlaneHead=0;swimlaneBody=0;top=0;left=0;bottom=0;right=0;collapsible=0;dropTarget=0;fillColor=none;points=[[0,0.5],[1,0.5]];portConstraint=eastwest;fontSize=16;strokeColor=inherit;" vertex="1" parent="iF8vFzWXp7HihGKIjFfX-87">
          <mxGeometry width="416.77" height="30" as="geometry" />
        </mxCell>
        <mxCell id="iF8vFzWXp7HihGKIjFfX-89" value="ou=Poliks Test" style="shape=partialRectangle;html=1;whiteSpace=wrap;connectable=0;fillColor=none;top=0;left=0;bottom=0;right=0;overflow=hidden;fontSize=12;strokeColor=inherit;align=left;spacingLeft=5;" vertex="1" parent="iF8vFzWXp7HihGKIjFfX-88">
          <mxGeometry width="287" height="30" as="geometry">
            <mxRectangle width="287" height="30" as="alternateBounds" />
          </mxGeometry>
        </mxCell>
        <mxCell id="iF8vFzWXp7HihGKIjFfX-90" value="&lt;span style=&quot;font-family: Arial, sans-serif; font-size: 14.6667px;&quot;&gt;organizationalUnit&lt;/span&gt;" style="shape=partialRectangle;html=1;whiteSpace=wrap;connectable=0;fillColor=#d80073;top=0;left=0;bottom=0;right=0;overflow=hidden;fontSize=12;strokeColor=#A50040;align=left;spacingLeft=5;fontColor=#FFFFFF;" vertex="1" parent="iF8vFzWXp7HihGKIjFfX-88">
          <mxGeometry x="287" width="130" height="30" as="geometry">
            <mxRectangle width="130" height="30" as="alternateBounds" />
          </mxGeometry>
        </mxCell>
        <mxCell id="iF8vFzWXp7HihGKIjFfX-91" value="" style="shape=table;html=1;whiteSpace=wrap;startSize=0;container=1;collapsible=0;childLayout=tableLayout;columnLines=0;rowLines=0;fontSize=16;strokeColor=default;" vertex="1" parent="1">
          <mxGeometry x="720.79" y="2509" width="416.77" height="30" as="geometry" />
        </mxCell>
        <mxCell id="iF8vFzWXp7HihGKIjFfX-92" value="" style="shape=tableRow;horizontal=0;startSize=0;swimlaneHead=0;swimlaneBody=0;top=0;left=0;bottom=0;right=0;collapsible=0;dropTarget=0;fillColor=none;points=[[0,0.5],[1,0.5]];portConstraint=eastwest;fontSize=16;strokeColor=inherit;" vertex="1" parent="iF8vFzWXp7HihGKIjFfX-91">
          <mxGeometry width="416.77" height="30" as="geometry" />
        </mxCell>
        <mxCell id="iF8vFzWXp7HihGKIjFfX-93" value="ou=Poliks Test" style="shape=partialRectangle;html=1;whiteSpace=wrap;connectable=0;fillColor=none;top=0;left=0;bottom=0;right=0;overflow=hidden;fontSize=12;strokeColor=inherit;align=left;spacingLeft=5;" vertex="1" parent="iF8vFzWXp7HihGKIjFfX-92">
          <mxGeometry width="287" height="30" as="geometry">
            <mxRectangle width="287" height="30" as="alternateBounds" />
          </mxGeometry>
        </mxCell>
        <mxCell id="iF8vFzWXp7HihGKIjFfX-94" value="&lt;span style=&quot;font-family: Arial, sans-serif; font-size: 14.6667px;&quot;&gt;organizationalUnit&lt;/span&gt;" style="shape=partialRectangle;html=1;whiteSpace=wrap;connectable=0;fillColor=#d80073;top=0;left=0;bottom=0;right=0;overflow=hidden;fontSize=12;strokeColor=#A50040;align=left;spacingLeft=5;fontColor=#FFFFFF;" vertex="1" parent="iF8vFzWXp7HihGKIjFfX-92">
          <mxGeometry x="287" width="130" height="30" as="geometry">
            <mxRectangle width="130" height="30" as="alternateBounds" />
          </mxGeometry>
        </mxCell>
        <mxCell id="iF8vFzWXp7HihGKIjFfX-95" value="" style="shape=table;html=1;whiteSpace=wrap;startSize=0;container=1;collapsible=0;childLayout=tableLayout;columnLines=0;rowLines=0;fontSize=16;strokeColor=default;" vertex="1" parent="1">
          <mxGeometry x="720.79" y="2440" width="416.77" height="30" as="geometry" />
        </mxCell>
        <mxCell id="iF8vFzWXp7HihGKIjFfX-96" value="" style="shape=tableRow;horizontal=0;startSize=0;swimlaneHead=0;swimlaneBody=0;top=0;left=0;bottom=0;right=0;collapsible=0;dropTarget=0;fillColor=none;points=[[0,0.5],[1,0.5]];portConstraint=eastwest;fontSize=16;strokeColor=inherit;" vertex="1" parent="iF8vFzWXp7HihGKIjFfX-95">
          <mxGeometry width="416.77" height="30" as="geometry" />
        </mxCell>
        <mxCell id="iF8vFzWXp7HihGKIjFfX-97" value="ou=Poliks Test" style="shape=partialRectangle;html=1;whiteSpace=wrap;connectable=0;fillColor=none;top=0;left=0;bottom=0;right=0;overflow=hidden;fontSize=12;strokeColor=inherit;align=left;spacingLeft=5;" vertex="1" parent="iF8vFzWXp7HihGKIjFfX-96">
          <mxGeometry width="287" height="30" as="geometry">
            <mxRectangle width="287" height="30" as="alternateBounds" />
          </mxGeometry>
        </mxCell>
        <mxCell id="iF8vFzWXp7HihGKIjFfX-98" value="&lt;span style=&quot;font-family: Arial, sans-serif; font-size: 14.6667px;&quot;&gt;organizationalUnit&lt;/span&gt;" style="shape=partialRectangle;html=1;whiteSpace=wrap;connectable=0;fillColor=#d80073;top=0;left=0;bottom=0;right=0;overflow=hidden;fontSize=12;strokeColor=#A50040;align=left;spacingLeft=5;fontColor=#FFFFFF;" vertex="1" parent="iF8vFzWXp7HihGKIjFfX-96">
          <mxGeometry x="287" width="130" height="30" as="geometry">
            <mxRectangle width="130" height="30" as="alternateBounds" />
          </mxGeometry>
        </mxCell>
        <mxCell id="iF8vFzWXp7HihGKIjFfX-99" value="" style="shape=table;html=1;whiteSpace=wrap;startSize=0;container=1;collapsible=0;childLayout=tableLayout;columnLines=0;rowLines=0;fontSize=16;strokeColor=default;" vertex="1" parent="1">
          <mxGeometry x="699.21" y="1580" width="390.79" height="30" as="geometry" />
        </mxCell>
        <mxCell id="iF8vFzWXp7HihGKIjFfX-100" value="" style="shape=tableRow;horizontal=0;startSize=0;swimlaneHead=0;swimlaneBody=0;top=0;left=0;bottom=0;right=0;collapsible=0;dropTarget=0;fillColor=none;points=[[0,0.5],[1,0.5]];portConstraint=eastwest;fontSize=16;strokeColor=inherit;" vertex="1" parent="iF8vFzWXp7HihGKIjFfX-99">
          <mxGeometry width="390.79" height="30" as="geometry" />
        </mxCell>
        <mxCell id="iF8vFzWXp7HihGKIjFfX-101" value="ou=plxtds1" style="shape=partialRectangle;html=1;whiteSpace=wrap;connectable=0;fillColor=none;top=0;left=0;bottom=0;right=0;overflow=hidden;fontSize=12;strokeColor=inherit;align=left;spacingLeft=5;" vertex="1" parent="iF8vFzWXp7HihGKIjFfX-100">
          <mxGeometry width="261" height="30" as="geometry">
            <mxRectangle width="261" height="30" as="alternateBounds" />
          </mxGeometry>
        </mxCell>
        <mxCell id="iF8vFzWXp7HihGKIjFfX-102" value="&lt;span style=&quot;font-family: Arial, sans-serif; font-size: 14.6667px;&quot;&gt;organizationalUnit&lt;/span&gt;" style="shape=partialRectangle;html=1;whiteSpace=wrap;connectable=0;fillColor=#d80073;top=0;left=0;bottom=0;right=0;overflow=hidden;fontSize=12;strokeColor=#A50040;align=left;spacingLeft=5;fontColor=#FFFFFF;" vertex="1" parent="iF8vFzWXp7HihGKIjFfX-100">
          <mxGeometry x="261" width="130" height="30" as="geometry">
            <mxRectangle width="130" height="30" as="alternateBounds" />
          </mxGeometry>
        </mxCell>
        <mxCell id="iF8vFzWXp7HihGKIjFfX-103" value="" style="shape=table;html=1;whiteSpace=wrap;startSize=0;container=1;collapsible=0;childLayout=tableLayout;columnLines=0;rowLines=0;fontSize=16;strokeColor=default;" vertex="1" parent="1">
          <mxGeometry x="720" y="2320" width="390.79" height="30" as="geometry" />
        </mxCell>
        <mxCell id="iF8vFzWXp7HihGKIjFfX-104" value="" style="shape=tableRow;horizontal=0;startSize=0;swimlaneHead=0;swimlaneBody=0;top=0;left=0;bottom=0;right=0;collapsible=0;dropTarget=0;fillColor=none;points=[[0,0.5],[1,0.5]];portConstraint=eastwest;fontSize=16;strokeColor=inherit;" vertex="1" parent="iF8vFzWXp7HihGKIjFfX-103">
          <mxGeometry width="390.79" height="30" as="geometry" />
        </mxCell>
        <mxCell id="iF8vFzWXp7HihGKIjFfX-105" value="ou=plxtds1" style="shape=partialRectangle;html=1;whiteSpace=wrap;connectable=0;fillColor=none;top=0;left=0;bottom=0;right=0;overflow=hidden;fontSize=12;strokeColor=inherit;align=left;spacingLeft=5;" vertex="1" parent="iF8vFzWXp7HihGKIjFfX-104">
          <mxGeometry width="261" height="30" as="geometry">
            <mxRectangle width="261" height="30" as="alternateBounds" />
          </mxGeometry>
        </mxCell>
        <mxCell id="iF8vFzWXp7HihGKIjFfX-106" value="&lt;span style=&quot;font-family: Arial, sans-serif; font-size: 14.6667px;&quot;&gt;organizationalUnit&lt;/span&gt;" style="shape=partialRectangle;html=1;whiteSpace=wrap;connectable=0;fillColor=#d80073;top=0;left=0;bottom=0;right=0;overflow=hidden;fontSize=12;strokeColor=#A50040;align=left;spacingLeft=5;fontColor=#FFFFFF;" vertex="1" parent="iF8vFzWXp7HihGKIjFfX-104">
          <mxGeometry x="261" width="130" height="30" as="geometry">
            <mxRectangle width="130" height="30" as="alternateBounds" />
          </mxGeometry>
        </mxCell>
        <mxCell id="iF8vFzWXp7HihGKIjFfX-107" value="" style="shape=table;html=1;whiteSpace=wrap;startSize=0;container=1;collapsible=0;childLayout=tableLayout;columnLines=0;rowLines=0;fontSize=16;strokeColor=default;" vertex="1" parent="1">
          <mxGeometry x="720.79" y="2360" width="390.79" height="30" as="geometry" />
        </mxCell>
        <mxCell id="iF8vFzWXp7HihGKIjFfX-108" value="" style="shape=tableRow;horizontal=0;startSize=0;swimlaneHead=0;swimlaneBody=0;top=0;left=0;bottom=0;right=0;collapsible=0;dropTarget=0;fillColor=none;points=[[0,0.5],[1,0.5]];portConstraint=eastwest;fontSize=16;strokeColor=inherit;" vertex="1" parent="iF8vFzWXp7HihGKIjFfX-107">
          <mxGeometry width="390.79" height="30" as="geometry" />
        </mxCell>
        <mxCell id="iF8vFzWXp7HihGKIjFfX-109" value="ou=plxtds1" style="shape=partialRectangle;html=1;whiteSpace=wrap;connectable=0;fillColor=none;top=0;left=0;bottom=0;right=0;overflow=hidden;fontSize=12;strokeColor=inherit;align=left;spacingLeft=5;" vertex="1" parent="iF8vFzWXp7HihGKIjFfX-108">
          <mxGeometry width="261" height="30" as="geometry">
            <mxRectangle width="261" height="30" as="alternateBounds" />
          </mxGeometry>
        </mxCell>
        <mxCell id="iF8vFzWXp7HihGKIjFfX-110" value="&lt;span style=&quot;font-family: Arial, sans-serif; font-size: 14.6667px;&quot;&gt;organizationalUnit&lt;/span&gt;" style="shape=partialRectangle;html=1;whiteSpace=wrap;connectable=0;fillColor=#d80073;top=0;left=0;bottom=0;right=0;overflow=hidden;fontSize=12;strokeColor=#A50040;align=left;spacingLeft=5;fontColor=#FFFFFF;" vertex="1" parent="iF8vFzWXp7HihGKIjFfX-108">
          <mxGeometry x="261" width="130" height="30" as="geometry">
            <mxRectangle width="130" height="30" as="alternateBounds" />
          </mxGeometry>
        </mxCell>
        <mxCell id="iF8vFzWXp7HihGKIjFfX-111" value="" style="shape=table;html=1;whiteSpace=wrap;startSize=0;container=1;collapsible=0;childLayout=tableLayout;columnLines=0;rowLines=0;fontSize=16;strokeColor=default;" vertex="1" parent="1">
          <mxGeometry x="720.38" y="2400" width="390.79" height="30" as="geometry" />
        </mxCell>
        <mxCell id="iF8vFzWXp7HihGKIjFfX-112" value="" style="shape=tableRow;horizontal=0;startSize=0;swimlaneHead=0;swimlaneBody=0;top=0;left=0;bottom=0;right=0;collapsible=0;dropTarget=0;fillColor=none;points=[[0,0.5],[1,0.5]];portConstraint=eastwest;fontSize=16;strokeColor=inherit;" vertex="1" parent="iF8vFzWXp7HihGKIjFfX-111">
          <mxGeometry width="390.79" height="30" as="geometry" />
        </mxCell>
        <mxCell id="iF8vFzWXp7HihGKIjFfX-113" value="ou=plxtds1" style="shape=partialRectangle;html=1;whiteSpace=wrap;connectable=0;fillColor=none;top=0;left=0;bottom=0;right=0;overflow=hidden;fontSize=12;strokeColor=inherit;align=left;spacingLeft=5;" vertex="1" parent="iF8vFzWXp7HihGKIjFfX-112">
          <mxGeometry width="261" height="30" as="geometry">
            <mxRectangle width="261" height="30" as="alternateBounds" />
          </mxGeometry>
        </mxCell>
        <mxCell id="iF8vFzWXp7HihGKIjFfX-114" value="&lt;span style=&quot;font-family: Arial, sans-serif; font-size: 14.6667px;&quot;&gt;organizationalUnit&lt;/span&gt;" style="shape=partialRectangle;html=1;whiteSpace=wrap;connectable=0;fillColor=#d80073;top=0;left=0;bottom=0;right=0;overflow=hidden;fontSize=12;strokeColor=#A50040;align=left;spacingLeft=5;fontColor=#FFFFFF;" vertex="1" parent="iF8vFzWXp7HihGKIjFfX-112">
          <mxGeometry x="261" width="130" height="30" as="geometry">
            <mxRectangle width="130" height="30" as="alternateBounds" />
          </mxGeometry>
        </mxCell>
        <mxCell id="iF8vFzWXp7HihGKIjFfX-115" value="" style="shape=table;html=1;whiteSpace=wrap;startSize=0;container=1;collapsible=0;childLayout=tableLayout;columnLines=0;rowLines=0;fontSize=16;strokeColor=default;" vertex="1" parent="1">
          <mxGeometry x="751.97" y="1740" width="338.82" height="30" as="geometry" />
        </mxCell>
        <mxCell id="iF8vFzWXp7HihGKIjFfX-116" value="" style="shape=tableRow;horizontal=0;startSize=0;swimlaneHead=0;swimlaneBody=0;top=0;left=0;bottom=0;right=0;collapsible=0;dropTarget=0;fillColor=none;points=[[0,0.5],[1,0.5]];portConstraint=eastwest;fontSize=16;strokeColor=inherit;" vertex="1" parent="iF8vFzWXp7HihGKIjFfX-115">
          <mxGeometry width="338.82" height="30" as="geometry" />
        </mxCell>
        <mxCell id="iF8vFzWXp7HihGKIjFfX-117" value="ou=plxtds3" style="shape=partialRectangle;html=1;whiteSpace=wrap;connectable=0;fillColor=none;top=0;left=0;bottom=0;right=0;overflow=hidden;fontSize=12;strokeColor=inherit;align=left;spacingLeft=5;" vertex="1" parent="iF8vFzWXp7HihGKIjFfX-116">
          <mxGeometry width="209" height="30" as="geometry">
            <mxRectangle width="209" height="30" as="alternateBounds" />
          </mxGeometry>
        </mxCell>
        <mxCell id="iF8vFzWXp7HihGKIjFfX-118" value="&lt;span style=&quot;font-family: Arial, sans-serif; font-size: 14.6667px;&quot;&gt;organizationalUnit&lt;/span&gt;" style="shape=partialRectangle;html=1;whiteSpace=wrap;connectable=0;fillColor=#d80073;top=0;left=0;bottom=0;right=0;overflow=hidden;fontSize=12;strokeColor=#A50040;align=left;spacingLeft=5;fontColor=#ffffff;" vertex="1" parent="iF8vFzWXp7HihGKIjFfX-116">
          <mxGeometry x="209" width="130" height="30" as="geometry">
            <mxRectangle width="130" height="30" as="alternateBounds" />
          </mxGeometry>
        </mxCell>
        <mxCell id="iF8vFzWXp7HihGKIjFfX-119" value="" style="shape=table;html=1;whiteSpace=wrap;startSize=0;container=1;collapsible=0;childLayout=tableLayout;columnLines=0;rowLines=0;fontSize=16;strokeColor=default;" vertex="1" parent="1">
          <mxGeometry x="724.8954" y="1660" width="365" height="30" as="geometry" />
        </mxCell>
        <mxCell id="iF8vFzWXp7HihGKIjFfX-120" value="" style="shape=tableRow;horizontal=0;startSize=0;swimlaneHead=0;swimlaneBody=0;top=0;left=0;bottom=0;right=0;collapsible=0;dropTarget=0;fillColor=none;points=[[0,0.5],[1,0.5]];portConstraint=eastwest;fontSize=16;strokeColor=inherit;" vertex="1" parent="iF8vFzWXp7HihGKIjFfX-119">
          <mxGeometry width="365" height="30" as="geometry" />
        </mxCell>
        <mxCell id="iF8vFzWXp7HihGKIjFfX-121" value="ou=plxtds2" style="shape=partialRectangle;html=1;whiteSpace=wrap;connectable=0;fillColor=none;top=0;left=0;bottom=0;right=0;overflow=hidden;fontSize=12;strokeColor=inherit;align=left;spacingLeft=5;" vertex="1" parent="iF8vFzWXp7HihGKIjFfX-120">
          <mxGeometry width="235" height="30" as="geometry">
            <mxRectangle width="235" height="30" as="alternateBounds" />
          </mxGeometry>
        </mxCell>
        <mxCell id="iF8vFzWXp7HihGKIjFfX-122" value="&lt;span style=&quot;font-family: Arial, sans-serif; font-size: 14.6667px;&quot;&gt;organizationalUnit&lt;/span&gt;" style="shape=partialRectangle;html=1;whiteSpace=wrap;connectable=0;fillColor=#d80073;top=0;left=0;bottom=0;right=0;overflow=hidden;fontSize=12;strokeColor=#A50040;align=left;spacingLeft=5;fontColor=#FFFFFF;" vertex="1" parent="iF8vFzWXp7HihGKIjFfX-120">
          <mxGeometry x="235" width="130" height="30" as="geometry">
            <mxRectangle width="130" height="30" as="alternateBounds" />
          </mxGeometry>
        </mxCell>
        <mxCell id="iF8vFzWXp7HihGKIjFfX-123" value="" style="shape=table;html=1;whiteSpace=wrap;startSize=0;container=1;collapsible=0;childLayout=tableLayout;columnLines=0;rowLines=0;fontSize=16;strokeColor=default;" vertex="1" parent="1">
          <mxGeometry x="752.07" y="1820" width="338.82" height="30" as="geometry" />
        </mxCell>
        <mxCell id="iF8vFzWXp7HihGKIjFfX-124" value="" style="shape=tableRow;horizontal=0;startSize=0;swimlaneHead=0;swimlaneBody=0;top=0;left=0;bottom=0;right=0;collapsible=0;dropTarget=0;fillColor=none;points=[[0,0.5],[1,0.5]];portConstraint=eastwest;fontSize=16;strokeColor=inherit;" vertex="1" parent="iF8vFzWXp7HihGKIjFfX-123">
          <mxGeometry width="338.82" height="30" as="geometry" />
        </mxCell>
        <mxCell id="iF8vFzWXp7HihGKIjFfX-125" value="ou=plxtds4" style="shape=partialRectangle;html=1;whiteSpace=wrap;connectable=0;fillColor=none;top=0;left=0;bottom=0;right=0;overflow=hidden;fontSize=12;strokeColor=inherit;align=left;spacingLeft=5;" vertex="1" parent="iF8vFzWXp7HihGKIjFfX-124">
          <mxGeometry width="209" height="30" as="geometry">
            <mxRectangle width="209" height="30" as="alternateBounds" />
          </mxGeometry>
        </mxCell>
        <mxCell id="iF8vFzWXp7HihGKIjFfX-126" value="&lt;span style=&quot;font-family: Arial, sans-serif; font-size: 14.6667px;&quot;&gt;organizationalUnit&lt;/span&gt;" style="shape=partialRectangle;html=1;whiteSpace=wrap;connectable=0;fillColor=#d80073;top=0;left=0;bottom=0;right=0;overflow=hidden;fontSize=12;strokeColor=#A50040;align=left;spacingLeft=5;fontColor=#ffffff;" vertex="1" parent="iF8vFzWXp7HihGKIjFfX-124">
          <mxGeometry x="209" width="130" height="30" as="geometry">
            <mxRectangle width="130" height="30" as="alternateBounds" />
          </mxGeometry>
        </mxCell>
        <mxCell id="iF8vFzWXp7HihGKIjFfX-127" value="" style="shape=table;html=1;whiteSpace=wrap;startSize=0;container=1;collapsible=0;childLayout=tableLayout;columnLines=0;rowLines=0;fontSize=16;strokeColor=default;" vertex="1" parent="1">
          <mxGeometry x="724.8954" y="1900" width="365" height="30" as="geometry" />
        </mxCell>
        <mxCell id="iF8vFzWXp7HihGKIjFfX-128" value="" style="shape=tableRow;horizontal=0;startSize=0;swimlaneHead=0;swimlaneBody=0;top=0;left=0;bottom=0;right=0;collapsible=0;dropTarget=0;fillColor=none;points=[[0,0.5],[1,0.5]];portConstraint=eastwest;fontSize=16;strokeColor=inherit;" vertex="1" parent="iF8vFzWXp7HihGKIjFfX-127">
          <mxGeometry width="365" height="30" as="geometry" />
        </mxCell>
        <mxCell id="iF8vFzWXp7HihGKIjFfX-129" value="ou=plxtds5" style="shape=partialRectangle;html=1;whiteSpace=wrap;connectable=0;fillColor=none;top=0;left=0;bottom=0;right=0;overflow=hidden;fontSize=12;strokeColor=inherit;align=left;spacingLeft=5;" vertex="1" parent="iF8vFzWXp7HihGKIjFfX-128">
          <mxGeometry width="235" height="30" as="geometry">
            <mxRectangle width="235" height="30" as="alternateBounds" />
          </mxGeometry>
        </mxCell>
        <mxCell id="iF8vFzWXp7HihGKIjFfX-130" value="&lt;span style=&quot;font-family: Arial, sans-serif; font-size: 14.6667px;&quot;&gt;organizationalUnit&lt;/span&gt;" style="shape=partialRectangle;html=1;whiteSpace=wrap;connectable=0;fillColor=#d80073;top=0;left=0;bottom=0;right=0;overflow=hidden;fontSize=12;strokeColor=#A50040;align=left;spacingLeft=5;fontColor=#FFFFFF;" vertex="1" parent="iF8vFzWXp7HihGKIjFfX-128">
          <mxGeometry x="235" width="130" height="30" as="geometry">
            <mxRectangle width="130" height="30" as="alternateBounds" />
          </mxGeometry>
        </mxCell>
        <mxCell id="iF8vFzWXp7HihGKIjFfX-131" value="" style="shape=table;html=1;whiteSpace=wrap;startSize=0;container=1;collapsible=0;childLayout=tableLayout;columnLines=0;rowLines=0;fontSize=16;strokeColor=default;" vertex="1" parent="1">
          <mxGeometry x="724.8954" y="1980" width="365" height="30" as="geometry" />
        </mxCell>
        <mxCell id="iF8vFzWXp7HihGKIjFfX-132" value="" style="shape=tableRow;horizontal=0;startSize=0;swimlaneHead=0;swimlaneBody=0;top=0;left=0;bottom=0;right=0;collapsible=0;dropTarget=0;fillColor=none;points=[[0,0.5],[1,0.5]];portConstraint=eastwest;fontSize=16;strokeColor=inherit;" vertex="1" parent="iF8vFzWXp7HihGKIjFfX-131">
          <mxGeometry width="365" height="30" as="geometry" />
        </mxCell>
        <mxCell id="iF8vFzWXp7HihGKIjFfX-133" value="ou=plxtds6" style="shape=partialRectangle;html=1;whiteSpace=wrap;connectable=0;fillColor=none;top=0;left=0;bottom=0;right=0;overflow=hidden;fontSize=12;strokeColor=inherit;align=left;spacingLeft=5;" vertex="1" parent="iF8vFzWXp7HihGKIjFfX-132">
          <mxGeometry width="235" height="30" as="geometry">
            <mxRectangle width="235" height="30" as="alternateBounds" />
          </mxGeometry>
        </mxCell>
        <mxCell id="iF8vFzWXp7HihGKIjFfX-134" value="&lt;span style=&quot;font-family: Arial, sans-serif; font-size: 14.6667px;&quot;&gt;organizationalUnit&lt;/span&gt;" style="shape=partialRectangle;html=1;whiteSpace=wrap;connectable=0;fillColor=#d80073;top=0;left=0;bottom=0;right=0;overflow=hidden;fontSize=12;strokeColor=#A50040;align=left;spacingLeft=5;fontColor=#FFFFFF;" vertex="1" parent="iF8vFzWXp7HihGKIjFfX-132">
          <mxGeometry x="235" width="130" height="30" as="geometry">
            <mxRectangle width="130" height="30" as="alternateBounds" />
          </mxGeometry>
        </mxCell>
        <mxCell id="iF8vFzWXp7HihGKIjFfX-143" value="" style="shape=table;html=1;whiteSpace=wrap;startSize=0;container=1;collapsible=0;childLayout=tableLayout;columnLines=0;rowLines=0;fontSize=16;strokeColor=default;" vertex="1" parent="1">
          <mxGeometry x="725.1954" y="1620" width="365" height="30" as="geometry" />
        </mxCell>
        <mxCell id="iF8vFzWXp7HihGKIjFfX-144" value="" style="shape=tableRow;horizontal=0;startSize=0;swimlaneHead=0;swimlaneBody=0;top=0;left=0;bottom=0;right=0;collapsible=0;dropTarget=0;fillColor=none;points=[[0,0.5],[1,0.5]];portConstraint=eastwest;fontSize=16;strokeColor=inherit;" vertex="1" parent="iF8vFzWXp7HihGKIjFfX-143">
          <mxGeometry width="365" height="30" as="geometry" />
        </mxCell>
        <mxCell id="iF8vFzWXp7HihGKIjFfX-145" value="cn=PLX_Vertretungsgruppe_plxtds1" style="shape=partialRectangle;html=1;whiteSpace=wrap;connectable=0;fillColor=none;top=0;left=0;bottom=0;right=0;overflow=hidden;fontSize=12;strokeColor=inherit;align=left;spacingLeft=5;" vertex="1" parent="iF8vFzWXp7HihGKIjFfX-144">
          <mxGeometry width="235" height="30" as="geometry">
            <mxRectangle width="235" height="30" as="alternateBounds" />
          </mxGeometry>
        </mxCell>
        <mxCell id="iF8vFzWXp7HihGKIjFfX-146" value="&lt;span style=&quot;font-family: Arial, sans-serif; font-size: 14.6667px;&quot;&gt;group&lt;/span&gt;" style="shape=partialRectangle;html=1;whiteSpace=wrap;connectable=0;fillColor=#d80073;top=0;left=0;bottom=0;right=0;overflow=hidden;fontSize=12;strokeColor=#A50040;align=left;spacingLeft=5;fontColor=#FFFFFF;" vertex="1" parent="iF8vFzWXp7HihGKIjFfX-144">
          <mxGeometry x="235" width="130" height="30" as="geometry">
            <mxRectangle width="130" height="30" as="alternateBounds" />
          </mxGeometry>
        </mxCell>
        <mxCell id="iF8vFzWXp7HihGKIjFfX-147" value="" style="endArrow=classic;html=1;rounded=0;exitX=1;exitY=0.5;exitDx=0;exitDy=0;entryX=1;entryY=0.5;entryDx=0;entryDy=0;edgeStyle=elbowEdgeStyle;fillColor=#f8cecc;strokeColor=#b85450;" edge="1" parent="1" source="iF8vFzWXp7HihGKIjFfX-144" target="ATNh2JxTAhS5jjdbq0t9-39">
          <mxGeometry width="50" height="50" relative="1" as="geometry">
            <mxPoint x="900" y="1420" as="sourcePoint" />
            <mxPoint x="1099.9999999999998" y="1461.139" as="targetPoint" />
            <Array as="points">
              <mxPoint x="1120" y="1540" />
            </Array>
          </mxGeometry>
        </mxCell>
        <mxCell id="iF8vFzWXp7HihGKIjFfX-177" value="member" style="edgeLabel;html=1;align=center;verticalAlign=middle;resizable=0;points=[];" vertex="1" connectable="0" parent="iF8vFzWXp7HihGKIjFfX-147">
          <mxGeometry x="-0.1485" y="-2" relative="1" as="geometry">
            <mxPoint as="offset" />
          </mxGeometry>
        </mxCell>
        <mxCell id="iF8vFzWXp7HihGKIjFfX-152" value="" style="shape=table;html=1;whiteSpace=wrap;startSize=0;container=1;collapsible=0;childLayout=tableLayout;columnLines=0;rowLines=0;fontSize=16;strokeColor=default;" vertex="1" parent="1">
          <mxGeometry x="751" y="1700" width="339" height="30" as="geometry" />
        </mxCell>
        <mxCell id="iF8vFzWXp7HihGKIjFfX-153" value="" style="shape=tableRow;horizontal=0;startSize=0;swimlaneHead=0;swimlaneBody=0;top=0;left=0;bottom=0;right=0;collapsible=0;dropTarget=0;fillColor=none;points=[[0,0.5],[1,0.5]];portConstraint=eastwest;fontSize=16;strokeColor=inherit;" vertex="1" parent="iF8vFzWXp7HihGKIjFfX-152">
          <mxGeometry width="339" height="30" as="geometry" />
        </mxCell>
        <mxCell id="iF8vFzWXp7HihGKIjFfX-154" value="cn=PLX_Vertretungsgruppe_plxtds2" style="shape=partialRectangle;html=1;whiteSpace=wrap;connectable=0;fillColor=none;top=0;left=0;bottom=0;right=0;overflow=hidden;fontSize=12;strokeColor=inherit;align=left;spacingLeft=5;" vertex="1" parent="iF8vFzWXp7HihGKIjFfX-153">
          <mxGeometry width="218" height="30" as="geometry">
            <mxRectangle width="218" height="30" as="alternateBounds" />
          </mxGeometry>
        </mxCell>
        <mxCell id="iF8vFzWXp7HihGKIjFfX-155" value="&lt;span style=&quot;font-family: Arial, sans-serif; font-size: 14.6667px;&quot;&gt;group&lt;/span&gt;" style="shape=partialRectangle;html=1;whiteSpace=wrap;connectable=0;fillColor=#d80073;top=0;left=0;bottom=0;right=0;overflow=hidden;fontSize=12;strokeColor=#A50040;align=left;spacingLeft=5;fontColor=#FFFFFF;" vertex="1" parent="iF8vFzWXp7HihGKIjFfX-153">
          <mxGeometry x="218" width="121" height="30" as="geometry">
            <mxRectangle width="121" height="30" as="alternateBounds" />
          </mxGeometry>
        </mxCell>
        <mxCell id="iF8vFzWXp7HihGKIjFfX-156" value="" style="shape=table;html=1;whiteSpace=wrap;startSize=0;container=1;collapsible=0;childLayout=tableLayout;columnLines=0;rowLines=0;fontSize=16;strokeColor=default;" vertex="1" parent="1">
          <mxGeometry x="780" y="1780" width="310" height="30" as="geometry" />
        </mxCell>
        <mxCell id="iF8vFzWXp7HihGKIjFfX-157" value="" style="shape=tableRow;horizontal=0;startSize=0;swimlaneHead=0;swimlaneBody=0;top=0;left=0;bottom=0;right=0;collapsible=0;dropTarget=0;fillColor=none;points=[[0,0.5],[1,0.5]];portConstraint=eastwest;fontSize=16;strokeColor=inherit;" vertex="1" parent="iF8vFzWXp7HihGKIjFfX-156">
          <mxGeometry width="310" height="30" as="geometry" />
        </mxCell>
        <mxCell id="iF8vFzWXp7HihGKIjFfX-158" value="cn=PLX_Vertretungsgruppe_plxtds3" style="shape=partialRectangle;html=1;whiteSpace=wrap;connectable=0;fillColor=none;top=0;left=0;bottom=0;right=0;overflow=hidden;fontSize=12;strokeColor=inherit;align=left;spacingLeft=5;" vertex="1" parent="iF8vFzWXp7HihGKIjFfX-157">
          <mxGeometry width="200" height="30" as="geometry">
            <mxRectangle width="200" height="30" as="alternateBounds" />
          </mxGeometry>
        </mxCell>
        <mxCell id="iF8vFzWXp7HihGKIjFfX-159" value="&lt;span style=&quot;font-family: Arial, sans-serif; font-size: 14.6667px;&quot;&gt;group&lt;/span&gt;" style="shape=partialRectangle;html=1;whiteSpace=wrap;connectable=0;fillColor=#d80073;top=0;left=0;bottom=0;right=0;overflow=hidden;fontSize=12;strokeColor=#A50040;align=left;spacingLeft=5;fontColor=#FFFFFF;" vertex="1" parent="iF8vFzWXp7HihGKIjFfX-157">
          <mxGeometry x="200" width="110" height="30" as="geometry">
            <mxRectangle width="110" height="30" as="alternateBounds" />
          </mxGeometry>
        </mxCell>
        <mxCell id="iF8vFzWXp7HihGKIjFfX-165" value="" style="shape=table;html=1;whiteSpace=wrap;startSize=0;container=1;collapsible=0;childLayout=tableLayout;columnLines=0;rowLines=0;fontSize=16;strokeColor=default;" vertex="1" parent="1">
          <mxGeometry x="780" y="1860" width="310" height="30" as="geometry" />
        </mxCell>
        <mxCell id="iF8vFzWXp7HihGKIjFfX-166" value="" style="shape=tableRow;horizontal=0;startSize=0;swimlaneHead=0;swimlaneBody=0;top=0;left=0;bottom=0;right=0;collapsible=0;dropTarget=0;fillColor=none;points=[[0,0.5],[1,0.5]];portConstraint=eastwest;fontSize=16;strokeColor=inherit;" vertex="1" parent="iF8vFzWXp7HihGKIjFfX-165">
          <mxGeometry width="310" height="30" as="geometry" />
        </mxCell>
        <mxCell id="iF8vFzWXp7HihGKIjFfX-167" value="ou=PLX_Vertretungsgruppe_plxtds4" style="shape=partialRectangle;html=1;whiteSpace=wrap;connectable=0;fillColor=none;top=0;left=0;bottom=0;right=0;overflow=hidden;fontSize=12;strokeColor=inherit;align=left;spacingLeft=5;" vertex="1" parent="iF8vFzWXp7HihGKIjFfX-166">
          <mxGeometry width="200" height="30" as="geometry">
            <mxRectangle width="200" height="30" as="alternateBounds" />
          </mxGeometry>
        </mxCell>
        <mxCell id="iF8vFzWXp7HihGKIjFfX-168" value="&lt;span style=&quot;font-family: Arial, sans-serif; font-size: 14.6667px;&quot;&gt;group&lt;/span&gt;" style="shape=partialRectangle;html=1;whiteSpace=wrap;connectable=0;fillColor=#d80073;top=0;left=0;bottom=0;right=0;overflow=hidden;fontSize=12;strokeColor=#A50040;align=left;spacingLeft=5;fontColor=#FFFFFF;" vertex="1" parent="iF8vFzWXp7HihGKIjFfX-166">
          <mxGeometry x="200" width="110" height="30" as="geometry">
            <mxRectangle width="110" height="30" as="alternateBounds" />
          </mxGeometry>
        </mxCell>
        <mxCell id="iF8vFzWXp7HihGKIjFfX-169" value="" style="shape=table;html=1;whiteSpace=wrap;startSize=0;container=1;collapsible=0;childLayout=tableLayout;columnLines=0;rowLines=0;fontSize=16;strokeColor=default;" vertex="1" parent="1">
          <mxGeometry x="750.9" y="1940" width="339" height="30" as="geometry" />
        </mxCell>
        <mxCell id="iF8vFzWXp7HihGKIjFfX-170" value="" style="shape=tableRow;horizontal=0;startSize=0;swimlaneHead=0;swimlaneBody=0;top=0;left=0;bottom=0;right=0;collapsible=0;dropTarget=0;fillColor=none;points=[[0,0.5],[1,0.5]];portConstraint=eastwest;fontSize=16;strokeColor=inherit;" vertex="1" parent="iF8vFzWXp7HihGKIjFfX-169">
          <mxGeometry width="339" height="30" as="geometry" />
        </mxCell>
        <mxCell id="iF8vFzWXp7HihGKIjFfX-171" value="cn=PLX_Vertretungsgruppe_plxtds5" style="shape=partialRectangle;html=1;whiteSpace=wrap;connectable=0;fillColor=none;top=0;left=0;bottom=0;right=0;overflow=hidden;fontSize=12;strokeColor=inherit;align=left;spacingLeft=5;" vertex="1" parent="iF8vFzWXp7HihGKIjFfX-170">
          <mxGeometry width="218" height="30" as="geometry">
            <mxRectangle width="218" height="30" as="alternateBounds" />
          </mxGeometry>
        </mxCell>
        <mxCell id="iF8vFzWXp7HihGKIjFfX-172" value="&lt;span style=&quot;font-family: Arial, sans-serif; font-size: 14.6667px;&quot;&gt;group&lt;/span&gt;" style="shape=partialRectangle;html=1;whiteSpace=wrap;connectable=0;fillColor=#d80073;top=0;left=0;bottom=0;right=0;overflow=hidden;fontSize=12;strokeColor=#A50040;align=left;spacingLeft=5;fontColor=#FFFFFF;" vertex="1" parent="iF8vFzWXp7HihGKIjFfX-170">
          <mxGeometry x="218" width="121" height="30" as="geometry">
            <mxRectangle width="121" height="30" as="alternateBounds" />
          </mxGeometry>
        </mxCell>
        <mxCell id="iF8vFzWXp7HihGKIjFfX-173" value="" style="shape=table;html=1;whiteSpace=wrap;startSize=0;container=1;collapsible=0;childLayout=tableLayout;columnLines=0;rowLines=0;fontSize=16;strokeColor=default;" vertex="1" parent="1">
          <mxGeometry x="752.0699999999999" y="2020" width="339" height="30" as="geometry" />
        </mxCell>
        <mxCell id="iF8vFzWXp7HihGKIjFfX-174" value="" style="shape=tableRow;horizontal=0;startSize=0;swimlaneHead=0;swimlaneBody=0;top=0;left=0;bottom=0;right=0;collapsible=0;dropTarget=0;fillColor=none;points=[[0,0.5],[1,0.5]];portConstraint=eastwest;fontSize=16;strokeColor=inherit;" vertex="1" parent="iF8vFzWXp7HihGKIjFfX-173">
          <mxGeometry width="339" height="30" as="geometry" />
        </mxCell>
        <mxCell id="iF8vFzWXp7HihGKIjFfX-175" value="cn=PLX_Vertretungsgruppe_plxtds6" style="shape=partialRectangle;html=1;whiteSpace=wrap;connectable=0;fillColor=none;top=0;left=0;bottom=0;right=0;overflow=hidden;fontSize=12;strokeColor=inherit;align=left;spacingLeft=5;" vertex="1" parent="iF8vFzWXp7HihGKIjFfX-174">
          <mxGeometry width="218" height="30" as="geometry">
            <mxRectangle width="218" height="30" as="alternateBounds" />
          </mxGeometry>
        </mxCell>
        <mxCell id="iF8vFzWXp7HihGKIjFfX-176" value="&lt;span style=&quot;font-family: Arial, sans-serif; font-size: 14.6667px;&quot;&gt;group&lt;/span&gt;" style="shape=partialRectangle;html=1;whiteSpace=wrap;connectable=0;fillColor=#d80073;top=0;left=0;bottom=0;right=0;overflow=hidden;fontSize=12;strokeColor=#A50040;align=left;spacingLeft=5;fontColor=#FFFFFF;" vertex="1" parent="iF8vFzWXp7HihGKIjFfX-174">
          <mxGeometry x="218" width="121" height="30" as="geometry">
            <mxRectangle width="121" height="30" as="alternateBounds" />
          </mxGeometry>
        </mxCell>
        <mxCell id="iF8vFzWXp7HihGKIjFfX-178" value="" style="endArrow=none;html=1;rounded=0;edgeStyle=orthogonalEdgeStyle;endFill=0;exitX=1;exitY=0.5;exitDx=0;exitDy=0;fillColor=#f8cecc;strokeColor=#b85450;" edge="1" parent="1" source="iF8vFzWXp7HihGKIjFfX-153">
          <mxGeometry width="50" height="50" relative="1" as="geometry">
            <mxPoint x="1091.07" y="1717" as="sourcePoint" />
            <mxPoint x="1120" y="1635" as="targetPoint" />
          </mxGeometry>
        </mxCell>
        <mxCell id="iF8vFzWXp7HihGKIjFfX-180" value="" style="endArrow=none;html=1;rounded=0;edgeStyle=orthogonalEdgeStyle;endFill=0;exitX=1;exitY=0.5;exitDx=0;exitDy=0;fillColor=#f8cecc;strokeColor=#b85450;" edge="1" parent="1" source="iF8vFzWXp7HihGKIjFfX-157">
          <mxGeometry width="50" height="50" relative="1" as="geometry">
            <mxPoint x="1091.07" y="1797.24" as="sourcePoint" />
            <mxPoint x="1120" y="1715" as="targetPoint" />
          </mxGeometry>
        </mxCell>
        <mxCell id="iF8vFzWXp7HihGKIjFfX-181" value="" style="endArrow=none;html=1;rounded=0;edgeStyle=orthogonalEdgeStyle;endFill=0;exitX=1;exitY=0.5;exitDx=0;exitDy=0;fillColor=#f8cecc;strokeColor=#b85450;" edge="1" parent="1" source="iF8vFzWXp7HihGKIjFfX-166">
          <mxGeometry width="50" height="50" relative="1" as="geometry">
            <mxPoint x="1091.07" y="1877.24" as="sourcePoint" />
            <mxPoint x="1120" y="1795" as="targetPoint" />
          </mxGeometry>
        </mxCell>
        <mxCell id="iF8vFzWXp7HihGKIjFfX-182" value="" style="shape=table;html=1;whiteSpace=wrap;startSize=0;container=1;collapsible=0;childLayout=tableLayout;columnLines=0;rowLines=0;fontSize=16;strokeColor=default;" vertex="1" parent="1">
          <mxGeometry x="674.3000000000001" y="2080" width="416.77" height="30" as="geometry" />
        </mxCell>
        <mxCell id="iF8vFzWXp7HihGKIjFfX-183" value="" style="shape=tableRow;horizontal=0;startSize=0;swimlaneHead=0;swimlaneBody=0;top=0;left=0;bottom=0;right=0;collapsible=0;dropTarget=0;fillColor=none;points=[[0,0.5],[1,0.5]];portConstraint=eastwest;fontSize=16;strokeColor=inherit;" vertex="1" parent="iF8vFzWXp7HihGKIjFfX-182">
          <mxGeometry width="416.77" height="30" as="geometry" />
        </mxCell>
        <mxCell id="iF8vFzWXp7HihGKIjFfX-184" value="ou=IVBS-Test-Dienstsellen" style="shape=partialRectangle;html=1;whiteSpace=wrap;connectable=0;fillColor=none;top=0;left=0;bottom=0;right=0;overflow=hidden;fontSize=12;strokeColor=inherit;align=left;spacingLeft=5;" vertex="1" parent="iF8vFzWXp7HihGKIjFfX-183">
          <mxGeometry width="287" height="30" as="geometry">
            <mxRectangle width="287" height="30" as="alternateBounds" />
          </mxGeometry>
        </mxCell>
        <mxCell id="iF8vFzWXp7HihGKIjFfX-185" value="&lt;span style=&quot;font-family: Arial, sans-serif; font-size: 14.6667px;&quot;&gt;organizationalUnit&lt;/span&gt;" style="shape=partialRectangle;html=1;whiteSpace=wrap;connectable=0;fillColor=#d80073;top=0;left=0;bottom=0;right=0;overflow=hidden;fontSize=12;strokeColor=#A50040;align=left;spacingLeft=5;fontColor=#FFFFFF;" vertex="1" parent="iF8vFzWXp7HihGKIjFfX-183">
          <mxGeometry x="287" width="130" height="30" as="geometry">
            <mxRectangle width="130" height="30" as="alternateBounds" />
          </mxGeometry>
        </mxCell>
        <mxCell id="iF8vFzWXp7HihGKIjFfX-186" value="" style="shape=table;html=1;whiteSpace=wrap;startSize=0;container=1;collapsible=0;childLayout=tableLayout;columnLines=0;rowLines=0;fontSize=16;strokeColor=default;" vertex="1" parent="1">
          <mxGeometry x="700.2800000000001" y="2119" width="390.79" height="30" as="geometry" />
        </mxCell>
        <mxCell id="iF8vFzWXp7HihGKIjFfX-187" value="" style="shape=tableRow;horizontal=0;startSize=0;swimlaneHead=0;swimlaneBody=0;top=0;left=0;bottom=0;right=0;collapsible=0;dropTarget=0;fillColor=none;points=[[0,0.5],[1,0.5]];portConstraint=eastwest;fontSize=16;strokeColor=inherit;" vertex="1" parent="iF8vFzWXp7HihGKIjFfX-186">
          <mxGeometry width="390.79" height="30" as="geometry" />
        </mxCell>
        <mxCell id="iF8vFzWXp7HihGKIjFfX-188" value="cn=Dir ZS IKT C 3" style="shape=partialRectangle;html=1;whiteSpace=wrap;connectable=0;fillColor=none;top=0;left=0;bottom=0;right=0;overflow=hidden;fontSize=12;strokeColor=inherit;align=left;spacingLeft=5;" vertex="1" parent="iF8vFzWXp7HihGKIjFfX-187">
          <mxGeometry width="261" height="30" as="geometry">
            <mxRectangle width="261" height="30" as="alternateBounds" />
          </mxGeometry>
        </mxCell>
        <mxCell id="iF8vFzWXp7HihGKIjFfX-189" value="&lt;span style=&quot;font-family: Arial, sans-serif; font-size: 14.6667px;&quot;&gt;organizationalUnit&lt;/span&gt;" style="shape=partialRectangle;html=1;whiteSpace=wrap;connectable=0;fillColor=#d80073;top=0;left=0;bottom=0;right=0;overflow=hidden;fontSize=12;strokeColor=#A50040;align=left;spacingLeft=5;fontColor=#FFFFFF;" vertex="1" parent="iF8vFzWXp7HihGKIjFfX-187">
          <mxGeometry x="261" width="130" height="30" as="geometry">
            <mxRectangle width="130" height="30" as="alternateBounds" />
          </mxGeometry>
        </mxCell>
        <mxCell id="iF8vFzWXp7HihGKIjFfX-190" value="" style="endArrow=classic;html=1;rounded=0;exitX=1;exitY=0.5;exitDx=0;exitDy=0;edgeStyle=elbowEdgeStyle;entryX=1;entryY=0.5;entryDx=0;entryDy=0;fillColor=#f8cecc;strokeColor=#b85450;" edge="1" parent="1" source="iF8vFzWXp7HihGKIjFfX-187" target="ATNh2JxTAhS5jjdbq0t9-36">
          <mxGeometry width="50" height="50" relative="1" as="geometry">
            <mxPoint x="1089.9" y="2140" as="sourcePoint" />
            <mxPoint x="1099.9999999999998" y="1434.7611" as="targetPoint" />
            <Array as="points">
              <mxPoint x="1150" y="1770" />
            </Array>
          </mxGeometry>
        </mxCell>
        <mxCell id="iF8vFzWXp7HihGKIjFfX-191" value="member" style="edgeLabel;html=1;align=center;verticalAlign=middle;resizable=0;points=[];" vertex="1" connectable="0" parent="iF8vFzWXp7HihGKIjFfX-190">
          <mxGeometry x="-0.1485" y="-2" relative="1" as="geometry">
            <mxPoint as="offset" />
          </mxGeometry>
        </mxCell>
        <mxCell id="iF8vFzWXp7HihGKIjFfX-192" value="" style="shape=table;html=1;whiteSpace=wrap;startSize=0;container=1;collapsible=0;childLayout=tableLayout;columnLines=0;rowLines=0;fontSize=16;strokeColor=default;" vertex="1" parent="1">
          <mxGeometry x="724.8954" y="2220" width="365" height="30" as="geometry" />
        </mxCell>
        <mxCell id="iF8vFzWXp7HihGKIjFfX-193" value="" style="shape=tableRow;horizontal=0;startSize=0;swimlaneHead=0;swimlaneBody=0;top=0;left=0;bottom=0;right=0;collapsible=0;dropTarget=0;fillColor=none;points=[[0,0.5],[1,0.5]];portConstraint=eastwest;fontSize=16;strokeColor=inherit;" vertex="1" parent="iF8vFzWXp7HihGKIjFfX-192">
          <mxGeometry width="365" height="30" as="geometry" />
        </mxCell>
        <mxCell id="iF8vFzWXp7HihGKIjFfX-194" value="cn=PLX_A_Straftat_Support" style="shape=partialRectangle;html=1;whiteSpace=wrap;connectable=0;fillColor=none;top=0;left=0;bottom=0;right=0;overflow=hidden;fontSize=12;strokeColor=inherit;align=left;spacingLeft=5;" vertex="1" parent="iF8vFzWXp7HihGKIjFfX-193">
          <mxGeometry width="235" height="30" as="geometry">
            <mxRectangle width="235" height="30" as="alternateBounds" />
          </mxGeometry>
        </mxCell>
        <mxCell id="iF8vFzWXp7HihGKIjFfX-195" value="&lt;span style=&quot;font-family: Arial, sans-serif; font-size: 14.6667px;&quot;&gt;group&lt;/span&gt;" style="shape=partialRectangle;html=1;whiteSpace=wrap;connectable=0;fillColor=#d80073;top=0;left=0;bottom=0;right=0;overflow=hidden;fontSize=12;strokeColor=#A50040;align=left;spacingLeft=5;fontColor=#FFFFFF;" vertex="1" parent="iF8vFzWXp7HihGKIjFfX-193">
          <mxGeometry x="235" width="130" height="30" as="geometry">
            <mxRectangle width="130" height="30" as="alternateBounds" />
          </mxGeometry>
        </mxCell>
        <mxCell id="iF8vFzWXp7HihGKIjFfX-196" value="" style="shape=table;html=1;whiteSpace=wrap;startSize=0;container=1;collapsible=0;childLayout=tableLayout;columnLines=0;rowLines=0;fontSize=16;strokeColor=default;" vertex="1" parent="1">
          <mxGeometry x="725.0654" y="2250" width="365" height="30" as="geometry" />
        </mxCell>
        <mxCell id="iF8vFzWXp7HihGKIjFfX-197" value="" style="shape=tableRow;horizontal=0;startSize=0;swimlaneHead=0;swimlaneBody=0;top=0;left=0;bottom=0;right=0;collapsible=0;dropTarget=0;fillColor=none;points=[[0,0.5],[1,0.5]];portConstraint=eastwest;fontSize=16;strokeColor=inherit;" vertex="1" parent="iF8vFzWXp7HihGKIjFfX-196">
          <mxGeometry width="365" height="30" as="geometry" />
        </mxCell>
        <mxCell id="iF8vFzWXp7HihGKIjFfX-198" value="cn=PLX_A_Ordnungswidrigkeit_Support" style="shape=partialRectangle;html=1;whiteSpace=wrap;connectable=0;fillColor=none;top=0;left=0;bottom=0;right=0;overflow=hidden;fontSize=12;strokeColor=inherit;align=left;spacingLeft=5;" vertex="1" parent="iF8vFzWXp7HihGKIjFfX-197">
          <mxGeometry width="235" height="30" as="geometry">
            <mxRectangle width="235" height="30" as="alternateBounds" />
          </mxGeometry>
        </mxCell>
        <mxCell id="iF8vFzWXp7HihGKIjFfX-199" value="&lt;span style=&quot;font-family: Arial, sans-serif; font-size: 14.6667px;&quot;&gt;group&lt;/span&gt;" style="shape=partialRectangle;html=1;whiteSpace=wrap;connectable=0;fillColor=#d80073;top=0;left=0;bottom=0;right=0;overflow=hidden;fontSize=12;strokeColor=#A50040;align=left;spacingLeft=5;fontColor=#FFFFFF;" vertex="1" parent="iF8vFzWXp7HihGKIjFfX-197">
          <mxGeometry x="235" width="130" height="30" as="geometry">
            <mxRectangle width="130" height="30" as="alternateBounds" />
          </mxGeometry>
        </mxCell>
        <mxCell id="iF8vFzWXp7HihGKIjFfX-200" value="" style="shape=table;html=1;whiteSpace=wrap;startSize=0;container=1;collapsible=0;childLayout=tableLayout;columnLines=0;rowLines=0;fontSize=16;strokeColor=default;" vertex="1" parent="1">
          <mxGeometry x="724.8954" y="2280" width="365" height="30" as="geometry" />
        </mxCell>
        <mxCell id="iF8vFzWXp7HihGKIjFfX-201" value="" style="shape=tableRow;horizontal=0;startSize=0;swimlaneHead=0;swimlaneBody=0;top=0;left=0;bottom=0;right=0;collapsible=0;dropTarget=0;fillColor=none;points=[[0,0.5],[1,0.5]];portConstraint=eastwest;fontSize=16;strokeColor=inherit;" vertex="1" parent="iF8vFzWXp7HihGKIjFfX-200">
          <mxGeometry width="365" height="30" as="geometry" />
        </mxCell>
        <mxCell id="iF8vFzWXp7HihGKIjFfX-202" value="cn=PLX_A_Verkehrsunfall_Support" style="shape=partialRectangle;html=1;whiteSpace=wrap;connectable=0;fillColor=none;top=0;left=0;bottom=0;right=0;overflow=hidden;fontSize=12;strokeColor=inherit;align=left;spacingLeft=5;" vertex="1" parent="iF8vFzWXp7HihGKIjFfX-201">
          <mxGeometry width="235" height="30" as="geometry">
            <mxRectangle width="235" height="30" as="alternateBounds" />
          </mxGeometry>
        </mxCell>
        <mxCell id="iF8vFzWXp7HihGKIjFfX-203" value="&lt;span style=&quot;font-family: Arial, sans-serif; font-size: 14.6667px;&quot;&gt;group&lt;/span&gt;" style="shape=partialRectangle;html=1;whiteSpace=wrap;connectable=0;fillColor=#d80073;top=0;left=0;bottom=0;right=0;overflow=hidden;fontSize=12;strokeColor=#A50040;align=left;spacingLeft=5;fontColor=#FFFFFF;" vertex="1" parent="iF8vFzWXp7HihGKIjFfX-201">
          <mxGeometry x="235" width="130" height="30" as="geometry">
            <mxRectangle width="130" height="30" as="alternateBounds" />
          </mxGeometry>
        </mxCell>
        <mxCell id="iF8vFzWXp7HihGKIjFfX-204" value="" style="endArrow=classic;html=1;rounded=0;edgeStyle=elbowEdgeStyle;exitX=1;exitY=0.5;exitDx=0;exitDy=0;entryX=1;entryY=0.75;entryDx=0;entryDy=0;fillColor=#d5e8d4;strokeColor=#82b366;" edge="1" parent="1" source="iF8vFzWXp7HihGKIjFfX-192" target="SHKqWwhrug4iHhSsZHbl-79">
          <mxGeometry width="50" height="50" relative="1" as="geometry">
            <mxPoint x="1091" y="2100" as="sourcePoint" />
            <mxPoint x="1090" y="605" as="targetPoint" />
            <Array as="points">
              <mxPoint x="1180" y="1460" />
            </Array>
          </mxGeometry>
        </mxCell>
        <mxCell id="iF8vFzWXp7HihGKIjFfX-205" value="member" style="edgeLabel;html=1;align=center;verticalAlign=middle;resizable=0;points=[];" vertex="1" connectable="0" parent="iF8vFzWXp7HihGKIjFfX-204">
          <mxGeometry x="-0.1485" y="-2" relative="1" as="geometry">
            <mxPoint as="offset" />
          </mxGeometry>
        </mxCell>
        <mxCell id="iF8vFzWXp7HihGKIjFfX-206" value="" style="endArrow=classic;html=1;rounded=0;edgeStyle=elbowEdgeStyle;entryX=1;entryY=0.5;entryDx=0;entryDy=0;exitX=1;exitY=0.5;exitDx=0;exitDy=0;fillColor=#d5e8d4;strokeColor=#82b366;" edge="1" parent="1" source="iF8vFzWXp7HihGKIjFfX-197" target="SHKqWwhrug4iHhSsZHbl-80">
          <mxGeometry width="50" height="50" relative="1" as="geometry">
            <mxPoint x="1100" y="2115" as="sourcePoint" />
            <mxPoint x="1100" y="585" as="targetPoint" />
            <Array as="points">
              <mxPoint x="1210" y="1460" />
            </Array>
          </mxGeometry>
        </mxCell>
        <mxCell id="iF8vFzWXp7HihGKIjFfX-207" value="member" style="edgeLabel;html=1;align=center;verticalAlign=middle;resizable=0;points=[];" vertex="1" connectable="0" parent="iF8vFzWXp7HihGKIjFfX-206">
          <mxGeometry x="-0.1485" y="-2" relative="1" as="geometry">
            <mxPoint y="9" as="offset" />
          </mxGeometry>
        </mxCell>
        <mxCell id="iF8vFzWXp7HihGKIjFfX-208" value="" style="shape=table;html=1;whiteSpace=wrap;startSize=0;container=1;collapsible=0;childLayout=tableLayout;columnLines=0;rowLines=0;fontSize=16;strokeColor=default;" vertex="1" parent="1">
          <mxGeometry x="724.8954" y="2160" width="365" height="30" as="geometry" />
        </mxCell>
        <mxCell id="iF8vFzWXp7HihGKIjFfX-209" value="" style="shape=tableRow;horizontal=0;startSize=0;swimlaneHead=0;swimlaneBody=0;top=0;left=0;bottom=0;right=0;collapsible=0;dropTarget=0;fillColor=none;points=[[0,0.5],[1,0.5]];portConstraint=eastwest;fontSize=16;strokeColor=inherit;" vertex="1" parent="iF8vFzWXp7HihGKIjFfX-208">
          <mxGeometry width="365" height="30" as="geometry" />
        </mxCell>
        <mxCell id="iF8vFzWXp7HihGKIjFfX-210" value="cn=Sascha Admin" style="shape=partialRectangle;html=1;whiteSpace=wrap;connectable=0;fillColor=none;top=0;left=0;bottom=0;right=0;overflow=hidden;fontSize=12;strokeColor=inherit;align=left;spacingLeft=5;" vertex="1" parent="iF8vFzWXp7HihGKIjFfX-209">
          <mxGeometry width="235" height="30" as="geometry">
            <mxRectangle width="235" height="30" as="alternateBounds" />
          </mxGeometry>
        </mxCell>
        <mxCell id="iF8vFzWXp7HihGKIjFfX-211" value="&lt;span style=&quot;font-family: Arial, sans-serif; font-size: 14.6667px;&quot;&gt;user&lt;/span&gt;" style="shape=partialRectangle;html=1;whiteSpace=wrap;connectable=0;fillColor=#d80073;top=0;left=0;bottom=0;right=0;overflow=hidden;fontSize=12;strokeColor=#A50040;align=left;spacingLeft=5;fontColor=#FFFFFF;" vertex="1" parent="iF8vFzWXp7HihGKIjFfX-209">
          <mxGeometry x="235" width="130" height="30" as="geometry">
            <mxRectangle width="130" height="30" as="alternateBounds" />
          </mxGeometry>
        </mxCell>
        <mxCell id="iF8vFzWXp7HihGKIjFfX-212" value="" style="endArrow=classic;html=1;rounded=0;edgeStyle=elbowEdgeStyle;exitX=1;exitY=0.5;exitDx=0;exitDy=0;entryX=1;entryY=0.25;entryDx=0;entryDy=0;" edge="1" parent="1" source="iF8vFzWXp7HihGKIjFfX-208" target="iF8vFzWXp7HihGKIjFfX-192">
          <mxGeometry width="50" height="50" relative="1" as="geometry">
            <mxPoint x="1100" y="2245" as="sourcePoint" />
            <mxPoint x="1110" y="2180" as="targetPoint" />
            <Array as="points">
              <mxPoint x="1160" y="2190" />
            </Array>
          </mxGeometry>
        </mxCell>
        <mxCell id="iF8vFzWXp7HihGKIjFfX-213" value="member" style="edgeLabel;html=1;align=center;verticalAlign=middle;resizable=0;points=[];" vertex="1" connectable="0" parent="iF8vFzWXp7HihGKIjFfX-212">
          <mxGeometry x="-0.1485" y="-2" relative="1" as="geometry">
            <mxPoint as="offset" />
          </mxGeometry>
        </mxCell>
        <mxCell id="iF8vFzWXp7HihGKIjFfX-218" value="" style="endArrow=classic;html=1;rounded=0;exitX=1.001;exitY=0.894;exitDx=0;exitDy=0;edgeStyle=elbowEdgeStyle;exitPerimeter=0;fillColor=#dae8fc;strokeColor=#6c8ebf;" edge="1" parent="1" source="iF8vFzWXp7HihGKIjFfX-66" target="ATNh2JxTAhS5jjdbq0t9-75">
          <mxGeometry width="50" height="50" relative="1" as="geometry">
            <mxPoint x="1092.07" y="1210" as="sourcePoint" />
            <mxPoint x="1130" y="515" as="targetPoint" />
            <Array as="points">
              <mxPoint x="1150" y="820" />
            </Array>
          </mxGeometry>
        </mxCell>
        <mxCell id="iF8vFzWXp7HihGKIjFfX-219" value="member" style="edgeLabel;html=1;align=center;verticalAlign=middle;resizable=0;points=[];" vertex="1" connectable="0" parent="iF8vFzWXp7HihGKIjFfX-218">
          <mxGeometry x="-0.1485" y="-2" relative="1" as="geometry">
            <mxPoint y="70" as="offset" />
          </mxGeometry>
        </mxCell>
        <mxCell id="iF8vFzWXp7HihGKIjFfX-220" value="" style="endArrow=classic;html=1;rounded=0;exitX=1;exitY=0.5;exitDx=0;exitDy=0;edgeStyle=elbowEdgeStyle;entryX=1;entryY=0.5;entryDx=0;entryDy=0;fillColor=#dae8fc;strokeColor=#6c8ebf;" edge="1" parent="1" source="ATNh2JxTAhS5jjdbq0t9-54" target="ATNh2JxTAhS5jjdbq0t9-78">
          <mxGeometry width="50" height="50" relative="1" as="geometry">
            <mxPoint x="1092.07" y="1210" as="sourcePoint" />
            <mxPoint x="1090" y="485" as="targetPoint" />
            <Array as="points">
              <mxPoint x="1120" y="830" />
            </Array>
          </mxGeometry>
        </mxCell>
        <mxCell id="iF8vFzWXp7HihGKIjFfX-221" value="member" style="edgeLabel;html=1;align=center;verticalAlign=middle;resizable=0;points=[];" vertex="1" connectable="0" parent="iF8vFzWXp7HihGKIjFfX-220">
          <mxGeometry x="-0.1485" y="-2" relative="1" as="geometry">
            <mxPoint as="offset" />
          </mxGeometry>
        </mxCell>
        <mxCell id="ATNh2JxTAhS5jjdbq0t9-1" value="" style="endArrow=none;html=1;rounded=0;exitX=0;exitY=0.5;exitDx=0;exitDy=0;edgeStyle=orthogonalEdgeStyle;" edge="1" parent="1" source="SHKqWwhrug4iHhSsZHbl-109">
          <mxGeometry width="50" height="50" relative="1" as="geometry">
            <mxPoint x="600" y="177.07999999999998" as="sourcePoint" />
            <mxPoint x="570" y="150" as="targetPoint" />
            <Array as="points">
              <mxPoint x="570" y="175" />
              <mxPoint x="570" y="150" />
            </Array>
          </mxGeometry>
        </mxCell>
        <mxCell id="ATNh2JxTAhS5jjdbq0t9-2" value="" style="endArrow=none;html=1;rounded=0;exitX=0;exitY=0.5;exitDx=0;exitDy=0;edgeStyle=orthogonalEdgeStyle;" edge="1" parent="1" source="SHKqWwhrug4iHhSsZHbl-97">
          <mxGeometry width="50" height="50" relative="1" as="geometry">
            <mxPoint x="679.21" y="294.9200000000001" as="sourcePoint" />
            <mxPoint x="660" y="270" as="targetPoint" />
          </mxGeometry>
        </mxCell>
        <mxCell id="ATNh2JxTAhS5jjdbq0t9-3" value="" style="endArrow=none;html=1;rounded=0;exitX=0;exitY=0.5;exitDx=0;exitDy=0;edgeStyle=orthogonalEdgeStyle;entryX=0.023;entryY=1;entryDx=0;entryDy=0;entryPerimeter=0;" edge="1" parent="1" source="ATNh2JxTAhS5jjdbq0t9-78" target="iF8vFzWXp7HihGKIjFfX-19">
          <mxGeometry width="50" height="50" relative="1" as="geometry">
            <mxPoint x="732.28" y="535" as="sourcePoint" />
            <mxPoint x="714.79" y="485" as="targetPoint" />
          </mxGeometry>
        </mxCell>
        <mxCell id="ATNh2JxTAhS5jjdbq0t9-4" value="" style="endArrow=none;html=1;rounded=0;entryX=0;entryY=0.5;entryDx=0;entryDy=0;" edge="1" parent="1" target="iF8vFzWXp7HihGKIjFfX-23">
          <mxGeometry width="50" height="50" relative="1" as="geometry">
            <mxPoint x="715" y="365" as="sourcePoint" />
            <mxPoint x="732.2819999999999" y="385" as="targetPoint" />
          </mxGeometry>
        </mxCell>
        <mxCell id="ATNh2JxTAhS5jjdbq0t9-5" value="" style="endArrow=none;html=1;rounded=0;entryX=0;entryY=0.5;entryDx=0;entryDy=0;" edge="1" parent="1" target="ATNh2JxTAhS5jjdbq0t9-69">
          <mxGeometry width="50" height="50" relative="1" as="geometry">
            <mxPoint x="715" y="395" as="sourcePoint" />
            <mxPoint x="732.2819999999999" y="415" as="targetPoint" />
          </mxGeometry>
        </mxCell>
        <mxCell id="ATNh2JxTAhS5jjdbq0t9-6" value="" style="endArrow=none;html=1;rounded=0;entryX=0;entryY=0.5;entryDx=0;entryDy=0;" edge="1" parent="1" target="ATNh2JxTAhS5jjdbq0t9-72">
          <mxGeometry width="50" height="50" relative="1" as="geometry">
            <mxPoint x="715" y="425" as="sourcePoint" />
            <mxPoint x="732.2819999999999" y="455" as="targetPoint" />
          </mxGeometry>
        </mxCell>
        <mxCell id="ATNh2JxTAhS5jjdbq0t9-7" value="" style="endArrow=none;html=1;rounded=0;entryX=0;entryY=0.5;entryDx=0;entryDy=0;" edge="1" parent="1" target="ATNh2JxTAhS5jjdbq0t9-75">
          <mxGeometry width="50" height="50" relative="1" as="geometry">
            <mxPoint x="715" y="455" as="sourcePoint" />
            <mxPoint x="732.28" y="495" as="targetPoint" />
          </mxGeometry>
        </mxCell>
        <mxCell id="ATNh2JxTAhS5jjdbq0t9-8" value="" style="endArrow=none;html=1;rounded=0;exitX=0;exitY=0.5;exitDx=0;exitDy=0;edgeStyle=orthogonalEdgeStyle;" edge="1" parent="1" source="ATNh2JxTAhS5jjdbq0t9-66">
          <mxGeometry width="50" height="50" relative="1" as="geometry">
            <mxPoint x="732.28" y="703.5" as="sourcePoint" />
            <mxPoint x="715" y="550" as="targetPoint" />
          </mxGeometry>
        </mxCell>
        <mxCell id="ATNh2JxTAhS5jjdbq0t9-9" value="" style="endArrow=none;html=1;rounded=0;entryX=0;entryY=0.5;entryDx=0;entryDy=0;" edge="1" parent="1" target="SHKqWwhrug4iHhSsZHbl-80">
          <mxGeometry width="50" height="50" relative="1" as="geometry">
            <mxPoint x="715.56" y="565" as="sourcePoint" />
            <mxPoint x="732.28" y="564.92" as="targetPoint" />
          </mxGeometry>
        </mxCell>
        <mxCell id="ATNh2JxTAhS5jjdbq0t9-10" value="" style="endArrow=none;html=1;rounded=0;entryX=0;entryY=0.5;entryDx=0;entryDy=0;" edge="1" parent="1" target="ATNh2JxTAhS5jjdbq0t9-60">
          <mxGeometry width="50" height="50" relative="1" as="geometry">
            <mxPoint x="716" y="595" as="sourcePoint" />
            <mxPoint x="732" y="626" as="targetPoint" />
          </mxGeometry>
        </mxCell>
        <mxCell id="ATNh2JxTAhS5jjdbq0t9-11" value="" style="endArrow=none;html=1;rounded=0;entryX=0;entryY=0.5;entryDx=0;entryDy=0;" edge="1" parent="1" target="ATNh2JxTAhS5jjdbq0t9-63">
          <mxGeometry width="50" height="50" relative="1" as="geometry">
            <mxPoint x="716" y="625" as="sourcePoint" />
            <mxPoint x="732" y="665" as="targetPoint" />
          </mxGeometry>
        </mxCell>
        <mxCell id="ATNh2JxTAhS5jjdbq0t9-12" value="" style="endArrow=none;html=1;rounded=0;exitX=0;exitY=0.5;exitDx=0;exitDy=0;edgeStyle=orthogonalEdgeStyle;" edge="1" parent="1" source="ATNh2JxTAhS5jjdbq0t9-87">
          <mxGeometry width="50" height="50" relative="1" as="geometry">
            <mxPoint x="732.28" y="873.9200000000001" as="sourcePoint" />
            <mxPoint x="715" y="720" as="targetPoint" />
          </mxGeometry>
        </mxCell>
        <mxCell id="ATNh2JxTAhS5jjdbq0t9-13" value="" style="endArrow=none;html=1;rounded=0;entryX=0;entryY=0.5;entryDx=0;entryDy=0;" edge="1" parent="1" target="SHKqWwhrug4iHhSsZHbl-56">
          <mxGeometry width="50" height="50" relative="1" as="geometry">
            <mxPoint x="715.56" y="735" as="sourcePoint" />
            <mxPoint x="732" y="735" as="targetPoint" />
          </mxGeometry>
        </mxCell>
        <mxCell id="ATNh2JxTAhS5jjdbq0t9-14" value="" style="endArrow=none;html=1;rounded=0;entryX=0;entryY=0.5;entryDx=0;entryDy=0;" edge="1" parent="1" target="ATNh2JxTAhS5jjdbq0t9-81">
          <mxGeometry width="50" height="50" relative="1" as="geometry">
            <mxPoint x="716" y="765" as="sourcePoint" />
            <mxPoint x="732" y="795" as="targetPoint" />
          </mxGeometry>
        </mxCell>
        <mxCell id="ATNh2JxTAhS5jjdbq0t9-15" value="" style="endArrow=none;html=1;rounded=0;entryX=0;entryY=0.5;entryDx=0;entryDy=0;" edge="1" parent="1" target="ATNh2JxTAhS5jjdbq0t9-84">
          <mxGeometry width="50" height="50" relative="1" as="geometry">
            <mxPoint x="716" y="795" as="sourcePoint" />
            <mxPoint x="732" y="835" as="targetPoint" />
          </mxGeometry>
        </mxCell>
        <mxCell id="ATNh2JxTAhS5jjdbq0t9-17" value="" style="endArrow=none;html=1;rounded=0;exitX=0;exitY=0.5;exitDx=0;exitDy=0;edgeStyle=orthogonalEdgeStyle;" edge="1" parent="1" source="ATNh2JxTAhS5jjdbq0t9-57">
          <mxGeometry width="50" height="50" relative="1" as="geometry">
            <mxPoint x="732.28" y="1093" as="sourcePoint" />
            <mxPoint x="715" y="890" as="targetPoint" />
          </mxGeometry>
        </mxCell>
        <mxCell id="ATNh2JxTAhS5jjdbq0t9-18" value="" style="endArrow=none;html=1;rounded=0;entryX=0;entryY=0.5;entryDx=0;entryDy=0;" edge="1" parent="1" target="iF8vFzWXp7HihGKIjFfX-67">
          <mxGeometry width="50" height="50" relative="1" as="geometry">
            <mxPoint x="715.56" y="905" as="sourcePoint" />
            <mxPoint x="740" y="900" as="targetPoint" />
          </mxGeometry>
        </mxCell>
        <mxCell id="ATNh2JxTAhS5jjdbq0t9-19" value="" style="endArrow=none;html=1;rounded=0;entryX=0;entryY=0.5;entryDx=0;entryDy=0;" edge="1" parent="1" target="ATNh2JxTAhS5jjdbq0t9-48">
          <mxGeometry width="50" height="50" relative="1" as="geometry">
            <mxPoint x="716" y="935" as="sourcePoint" />
            <mxPoint x="732" y="975" as="targetPoint" />
          </mxGeometry>
        </mxCell>
        <mxCell id="ATNh2JxTAhS5jjdbq0t9-20" value="" style="endArrow=none;html=1;rounded=0;entryX=0;entryY=0.5;entryDx=0;entryDy=0;" edge="1" parent="1" target="ATNh2JxTAhS5jjdbq0t9-51">
          <mxGeometry width="50" height="50" relative="1" as="geometry">
            <mxPoint x="716" y="965" as="sourcePoint" />
            <mxPoint x="732" y="1015" as="targetPoint" />
          </mxGeometry>
        </mxCell>
        <mxCell id="ATNh2JxTAhS5jjdbq0t9-21" value="" style="endArrow=none;html=1;rounded=0;entryX=0;entryY=0.5;entryDx=0;entryDy=0;" edge="1" parent="1" target="ATNh2JxTAhS5jjdbq0t9-54">
          <mxGeometry width="50" height="50" relative="1" as="geometry">
            <mxPoint x="716" y="995" as="sourcePoint" />
            <mxPoint x="732" y="1053" as="targetPoint" />
          </mxGeometry>
        </mxCell>
        <mxCell id="ATNh2JxTAhS5jjdbq0t9-27" value="" style="endArrow=none;html=1;rounded=0;exitX=0;exitY=0.5;exitDx=0;exitDy=0;edgeStyle=orthogonalEdgeStyle;" edge="1" parent="1" source="ATNh2JxTAhS5jjdbq0t9-45">
          <mxGeometry width="50" height="50" relative="1" as="geometry">
            <mxPoint x="732.28" y="1345.9999999999998" as="sourcePoint" />
            <mxPoint x="715" y="1090" as="targetPoint" />
          </mxGeometry>
        </mxCell>
        <mxCell id="ATNh2JxTAhS5jjdbq0t9-28" value="" style="endArrow=none;html=1;rounded=0;entryX=0;entryY=0.5;entryDx=0;entryDy=0;" edge="1" parent="1" target="iF8vFzWXp7HihGKIjFfX-6">
          <mxGeometry width="50" height="50" relative="1" as="geometry">
            <mxPoint x="715.56" y="1105" as="sourcePoint" />
            <mxPoint x="732" y="1103" as="targetPoint" />
          </mxGeometry>
        </mxCell>
        <mxCell id="ATNh2JxTAhS5jjdbq0t9-29" value="" style="endArrow=none;html=1;rounded=0;entryX=0;entryY=0.5;entryDx=0;entryDy=0;" edge="1" parent="1" target="ATNh2JxTAhS5jjdbq0t9-33">
          <mxGeometry width="50" height="50" relative="1" as="geometry">
            <mxPoint x="715.56" y="1135" as="sourcePoint" />
            <mxPoint x="732" y="1133" as="targetPoint" />
          </mxGeometry>
        </mxCell>
        <mxCell id="ATNh2JxTAhS5jjdbq0t9-30" value="" style="endArrow=none;html=1;rounded=0;entryX=0;entryY=0.5;entryDx=0;entryDy=0;" edge="1" parent="1" target="ATNh2JxTAhS5jjdbq0t9-36">
          <mxGeometry width="50" height="50" relative="1" as="geometry">
            <mxPoint x="716" y="1165" as="sourcePoint" />
            <mxPoint x="732" y="1243" as="targetPoint" />
          </mxGeometry>
        </mxCell>
        <mxCell id="ATNh2JxTAhS5jjdbq0t9-31" value="" style="endArrow=none;html=1;rounded=0;entryX=0;entryY=0.5;entryDx=0;entryDy=0;" edge="1" parent="1" target="ATNh2JxTAhS5jjdbq0t9-39">
          <mxGeometry width="50" height="50" relative="1" as="geometry">
            <mxPoint x="716" y="1195" as="sourcePoint" />
            <mxPoint x="732" y="1273" as="targetPoint" />
          </mxGeometry>
        </mxCell>
        <mxCell id="ATNh2JxTAhS5jjdbq0t9-32" value="" style="endArrow=none;html=1;rounded=0;entryX=0;entryY=0.5;entryDx=0;entryDy=0;" edge="1" parent="1" target="ATNh2JxTAhS5jjdbq0t9-42">
          <mxGeometry width="50" height="50" relative="1" as="geometry">
            <mxPoint x="716" y="1225" as="sourcePoint" />
            <mxPoint x="732" y="1303" as="targetPoint" />
          </mxGeometry>
        </mxCell>
        <mxCell id="ATNh2JxTAhS5jjdbq0t9-90" value="&lt;p style=&quot;line-height: 22px; margin-top: 2.12mm; margin-bottom: 2.12mm; direction: ltr; background: transparent; font-family: Arial, sans-serif; font-size: 11pt;&quot; class=&quot;western&quot;&gt;ads.jndi.suffix.dienststellengruppe&lt;/p&gt;" style="rounded=0;whiteSpace=wrap;html=1;align=left;spacingLeft=5;" vertex="1" parent="1">
          <mxGeometry x="270" y="1150.0394000000001" width="251.968" height="29.9212" as="geometry" />
        </mxCell>
        <mxCell id="ATNh2JxTAhS5jjdbq0t9-93" value="&lt;p style=&quot;line-height: 22px; margin-top: 2.12mm; margin-bottom: 2.12mm; direction: ltr; background: transparent; font-family: Arial, sans-serif; font-size: 11pt;&quot; class=&quot;western&quot;&gt;ads.jndi.suffix.dienststelle&lt;/p&gt;" style="rounded=0;whiteSpace=wrap;html=1;align=left;spacingLeft=5;" vertex="1" parent="1">
          <mxGeometry x="270" y="279.9594" width="251.968" height="29.9212" as="geometry" />
        </mxCell>
        <mxCell id="ATNh2JxTAhS5jjdbq0t9-94" value="" style="endArrow=classic;html=1;rounded=0;exitX=1;exitY=0.5;exitDx=0;exitDy=0;" edge="1" parent="1" source="ATNh2JxTAhS5jjdbq0t9-93">
          <mxGeometry width="50" height="50" relative="1" as="geometry">
            <mxPoint x="532" y="1115" as="sourcePoint" />
            <mxPoint x="650" y="295" as="targetPoint" />
          </mxGeometry>
        </mxCell>
        <mxCell id="ATNh2JxTAhS5jjdbq0t9-96" value="defines" style="edgeLabel;html=1;align=center;verticalAlign=middle;resizable=0;points=[];" vertex="1" connectable="0" parent="ATNh2JxTAhS5jjdbq0t9-94">
          <mxGeometry x="0.297" y="1" relative="1" as="geometry">
            <mxPoint as="offset" />
          </mxGeometry>
        </mxCell>
        <mxCell id="ATNh2JxTAhS5jjdbq0t9-97" value="" style="endArrow=classic;html=1;rounded=0;exitX=1;exitY=0.5;exitDx=0;exitDy=0;" edge="1" parent="1" source="SHKqWwhrug4iHhSsZHbl-2">
          <mxGeometry width="50" height="50" relative="1" as="geometry">
            <mxPoint x="532" y="305" as="sourcePoint" />
            <mxPoint x="650" y="1105" as="targetPoint" />
          </mxGeometry>
        </mxCell>
        <mxCell id="ATNh2JxTAhS5jjdbq0t9-98" value="defines" style="edgeLabel;html=1;align=center;verticalAlign=middle;resizable=0;points=[];" vertex="1" connectable="0" parent="ATNh2JxTAhS5jjdbq0t9-97">
          <mxGeometry x="0.297" y="1" relative="1" as="geometry">
            <mxPoint as="offset" />
          </mxGeometry>
        </mxCell>
        <mxCell id="ATNh2JxTAhS5jjdbq0t9-99" value="" style="endArrow=classic;html=1;rounded=0;exitX=1;exitY=0.5;exitDx=0;exitDy=0;" edge="1" parent="1" source="ATNh2JxTAhS5jjdbq0t9-90">
          <mxGeometry width="50" height="50" relative="1" as="geometry">
            <mxPoint x="532" y="1115" as="sourcePoint" />
            <mxPoint x="650" y="1165" as="targetPoint" />
          </mxGeometry>
        </mxCell>
        <mxCell id="ATNh2JxTAhS5jjdbq0t9-100" value="defines" style="edgeLabel;html=1;align=center;verticalAlign=middle;resizable=0;points=[];" vertex="1" connectable="0" parent="ATNh2JxTAhS5jjdbq0t9-99">
          <mxGeometry x="0.297" y="1" relative="1" as="geometry">
            <mxPoint as="offset" />
          </mxGeometry>
        </mxCell>
        <mxCell id="ATNh2JxTAhS5jjdbq0t9-101" value="&lt;p style=&quot;line-height: 22px; margin-top: 2.12mm; margin-bottom: 2.12mm; direction: ltr; background: transparent; font-family: Arial, sans-serif; font-size: 11pt;&quot; class=&quot;western&quot;&gt;ads.jndi.suffix.sonderrechtgruppe&lt;/p&gt;" style="rounded=0;whiteSpace=wrap;html=1;align=left;spacingLeft=5;" vertex="1" parent="1">
          <mxGeometry x="270" y="1210.9994000000002" width="251.968" height="29.9212" as="geometry" />
        </mxCell>
        <mxCell id="ATNh2JxTAhS5jjdbq0t9-102" value="" style="endArrow=classic;html=1;rounded=0;exitX=1;exitY=0.5;exitDx=0;exitDy=0;" edge="1" parent="1" source="ATNh2JxTAhS5jjdbq0t9-101">
          <mxGeometry width="50" height="50" relative="1" as="geometry">
            <mxPoint x="532" y="1175" as="sourcePoint" />
            <mxPoint x="650" y="1226" as="targetPoint" />
          </mxGeometry>
        </mxCell>
        <mxCell id="ATNh2JxTAhS5jjdbq0t9-103" value="defines" style="edgeLabel;html=1;align=center;verticalAlign=middle;resizable=0;points=[];" vertex="1" connectable="0" parent="ATNh2JxTAhS5jjdbq0t9-102">
          <mxGeometry x="0.297" y="1" relative="1" as="geometry">
            <mxPoint as="offset" />
          </mxGeometry>
        </mxCell>
      </root>
    </mxGraphModel>
  </diagram>
  <diagram id="7_98iNBdCWRg8uHulHne" name="Page-2">
    <mxGraphModel dx="1420" dy="910" grid="1" gridSize="10" guides="1" tooltips="1" connect="1" arrows="1" fold="1" page="1" pageScale="1" pageWidth="1169" pageHeight="827" math="0" shadow="0">
      <root>
        <mxCell id="0" />
        <mxCell id="1" parent="0" />
        <mxCell id="9uYaPdYw8W9mOhcqfIDs-1" value="" style="shape=table;html=1;whiteSpace=wrap;startSize=0;container=1;collapsible=0;childLayout=tableLayout;columnLines=0;rowLines=0;fontSize=16;strokeColor=default;" vertex="1" parent="1">
          <mxGeometry x="402" y="40.000000000000114" width="365" height="30" as="geometry" />
        </mxCell>
        <mxCell id="9uYaPdYw8W9mOhcqfIDs-2" value="" style="shape=tableRow;horizontal=0;startSize=0;swimlaneHead=0;swimlaneBody=0;top=0;left=0;bottom=0;right=0;collapsible=0;dropTarget=0;fillColor=none;points=[[0,0.5],[1,0.5]];portConstraint=eastwest;fontSize=16;strokeColor=inherit;" vertex="1" parent="9uYaPdYw8W9mOhcqfIDs-1">
          <mxGeometry width="365" height="30" as="geometry" />
        </mxCell>
        <mxCell id="9uYaPdYw8W9mOhcqfIDs-3" value="ou=Funktionsberechtigungen" style="shape=partialRectangle;html=1;whiteSpace=wrap;connectable=0;fillColor=none;top=0;left=0;bottom=0;right=0;overflow=hidden;fontSize=12;strokeColor=inherit;align=left;spacingLeft=5;" vertex="1" parent="9uYaPdYw8W9mOhcqfIDs-2">
          <mxGeometry width="235" height="30" as="geometry">
            <mxRectangle width="235" height="30" as="alternateBounds" />
          </mxGeometry>
        </mxCell>
        <mxCell id="9uYaPdYw8W9mOhcqfIDs-4" value="&lt;span style=&quot;font-family: Arial, sans-serif; font-size: 14.6667px;&quot;&gt;organizationalUnit&lt;/span&gt;" style="shape=partialRectangle;html=1;whiteSpace=wrap;connectable=0;fillColor=#d80073;top=0;left=0;bottom=0;right=0;overflow=hidden;fontSize=12;strokeColor=#A50040;align=left;spacingLeft=5;fontColor=#FFFFFF;" vertex="1" parent="9uYaPdYw8W9mOhcqfIDs-2">
          <mxGeometry x="235" width="130" height="30" as="geometry">
            <mxRectangle width="130" height="30" as="alternateBounds" />
          </mxGeometry>
        </mxCell>
        <mxCell id="NymaQ-UyNNdYTCe0ijz_-1" value="" style="shape=table;html=1;whiteSpace=wrap;startSize=0;container=1;collapsible=0;childLayout=tableLayout;columnLines=0;rowLines=0;fontSize=16;strokeColor=default;" vertex="1" parent="1">
          <mxGeometry x="440.0000000000001" y="80" width="339" height="30" as="geometry" />
        </mxCell>
        <mxCell id="NymaQ-UyNNdYTCe0ijz_-2" value="" style="shape=tableRow;horizontal=0;startSize=0;swimlaneHead=0;swimlaneBody=0;top=0;left=0;bottom=0;right=0;collapsible=0;dropTarget=0;fillColor=none;points=[[0,0.5],[1,0.5]];portConstraint=eastwest;fontSize=16;strokeColor=inherit;" vertex="1" parent="NymaQ-UyNNdYTCe0ijz_-1">
          <mxGeometry width="339" height="30" as="geometry" />
        </mxCell>
        <mxCell id="NymaQ-UyNNdYTCe0ijz_-3" value="cn=grundrecht" style="shape=partialRectangle;html=1;whiteSpace=wrap;connectable=0;fillColor=none;top=0;left=0;bottom=0;right=0;overflow=hidden;fontSize=12;strokeColor=inherit;align=left;spacingLeft=5;" vertex="1" parent="NymaQ-UyNNdYTCe0ijz_-2">
          <mxGeometry width="209" height="30" as="geometry">
            <mxRectangle width="209" height="30" as="alternateBounds" />
          </mxGeometry>
        </mxCell>
        <mxCell id="NymaQ-UyNNdYTCe0ijz_-4" value="&lt;span style=&quot;font-family: Arial, sans-serif; font-size: 14.6667px;&quot;&gt;group&lt;/span&gt;" style="shape=partialRectangle;html=1;whiteSpace=wrap;connectable=0;fillColor=#d80073;top=0;left=0;bottom=0;right=0;overflow=hidden;fontSize=12;strokeColor=#A50040;align=left;spacingLeft=5;fontColor=#ffffff;" vertex="1" parent="NymaQ-UyNNdYTCe0ijz_-2">
          <mxGeometry x="209" width="130" height="30" as="geometry">
            <mxRectangle width="130" height="30" as="alternateBounds" />
          </mxGeometry>
        </mxCell>
      </root>
    </mxGraphModel>
  </diagram>
</mxfile>
